/* XPM */
static char * 0_xpm[] = {
"32 32 100 2",
"  	c #FFFFFF",
"..	c None",
". 	c #F5F5F5",
"+ 	c #C8C8C8",
"@ 	c #9B9B9B",
"# 	c #6D6D6D",
"$ 	c #404040",
"% 	c #1C1C1C",
"& 	c #383838",
"* 	c #626262",
"= 	c #8F8F8F",
"- 	c #BEBEBE",
"; 	c #EDEDED",
"> 	c #F6F6F6",
", 	c #AAAAAA",
"' 	c #222222",
") 	c #000000",
"! 	c #929292",
"~ 	c #ECECEC",
"{ 	c #E3E3E3",
"] 	c #555555",
"^ 	c #9A9A9A",
"/ 	c #E9E9E9",
"( 	c #FBFBFB",
"_ 	c #F0F0F0",
": 	c #B6B6B6",
"< 	c #0D0D0D",
"[ 	c #323232",
"} 	c #CECECE",
"| 	c #E2E2E2",
"1 	c #919191",
"2 	c #FEFEFE",
"3 	c #BBBBBB",
"4 	c #C9C9C9",
"5 	c #4F4F4F",
"6 	c #E6E6E6",
"7 	c #FAFAFA",
"8 	c #3D3D3D",
"9 	c #161616",
"0 	c #E5E5E5",
"a 	c #A4A4A4",
"b 	c #474747",
"c 	c #777777",
"d 	c #FDFDFD",
"e 	c #838383",
"f 	c #B4B4B4",
"g 	c #CACACA",
"h 	c #A9A9A9",
"i 	c #9F9F9F",
"j 	c #787878",
"k 	c #B0B0B0",
"l 	c #D6D6D6",
"m 	c #EAEAEA",
"n 	c #DDDDDD",
"o 	c #BCBCBC",
"p 	c #DFDFDF",
"q 	c #BDBDBD",
"r 	c #C0C0C0",
"s 	c #C4C4C4",
"t 	c #989898",
"u 	c #9C9C9C",
"v 	c #727272",
"w 	c #EFEFEF",
"x 	c #5A5A5A",
"y 	c #D1D1D1",
"z 	c #F1F1F1",
"A 	c #F3F3F3",
"B 	c #D3D3D3",
"C 	c #D4D4D4",
"D 	c #F4F4F4",
"E 	c #F2F2F2",
"F 	c #606060",
"G 	c #BFBFBF",
"H 	c #E7E7E7",
"I 	c #979797",
"J 	c #DCDCDC",
"K 	c #E0E0E0",
"L 	c #424242",
"M 	c #D7D7D7",
"N 	c #A8A8A8",
"O 	c #767676",
"P 	c #848484",
"Q 	c #A2A2A2",
"R 	c #494949",
"S 	c #959595",
"T 	c #757575",
"U 	c #4B4B4B",
"V 	c #E4E4E4",
"W 	c #2E2E2E",
"X 	c #939393",
"Y 	c #C7C7C7",
"Z 	c #515151",
"` 	c #B9B9B9",
" .	c #CDCDCD",
"+.	c #909090",
"@.	c #EBEBEB",
"#.	c #999999",
"$.	c #6A6A6A",
"%.	c #3B3B3B",
"&.	c #8E8E8E",
"................................................................",
"................................................................",
"                      ; + @ # $ % & * = - ;                     ",
"                  > , ' ) ) ) ) ) ) ) ) ) ) ! ~                 ",
"                { ] ) ) ) ) ^ / ( _ : < ) ) ) [ }               ",
"              | [ ) ) ) ) 1 2         3 ) ) ) ) ) 4             ",
"            > 5 ) ) ) ) ) 6           7 8 ) ) ) ) 9 0           ",
"            a ) ) ) ) ) b               ! ) ) ) ) ) c d         ",
"          h ) ) ) ) ) ) i               + ) ) ) ) ) ) j         ",
"        ( b ) ) ) ) ) ) k               l ) ) ) ) ) ) ) m       ",
"        n ) ) ) ) ) ) ) o               p ) ) ) ) ) ) ) q       ",
"        r ) ) ) ) ) ) ) s               6 ) ) ) ) ) ) ) t       ",
"        u ) ) ) ) ) ) ) g               ~ ) ) ) ) ) ) ) *       ",
"        v ) ) ) ) ) ) ) }               w ) ) ) ) ) ) ) ) 7     ",
"        x ) ) ) ) ) ) ) y               z ) ) ) ) ) ) ) ) A     ",
"      2 < ) ) ) ) ) ) ) C               D ) ) ) ) ) ) ) ) 0     ",
"      2 < ) ) ) ) ) ) ) C               D ) ) ) ) ) ) ) ) 0     ",
"        x ) ) ) ) ) ) ) y               E ) ) ) ) ) ) ) ) A     ",
"        v ) ) ) ) ) ) ) }               w ) ) ) ) ) ) ) ) 7     ",
"        @ ) ) ) ) ) ) ) g               ~ ) ) ) ) ) ) ) F       ",
"        G ) ) ) ) ) ) ) s               H ) ) ) ) ) ) ) I       ",
"        J ) ) ) ) ) ) ) o               K ) ) ) ) ) ) ) o       ",
"        ( L ) ) ) ) ) ) k               M ) ) ) ) ) ) ) /       ",
"          0 ) ) ) ) ) ) P               : ) ) ) ) ) ) +         ",
"            Q ) ) ) ) ) R               S ) ) ) ) ) T d         ",
"            . U ) ) ) ) ) H           ( b ) ) ) ) 9 V           ",
"              K W ) ) ) ) X           - ) ) ) ) ) Y             ",
"                | Z ) ) ) ) @ m ( z ` < ) ) ) W  .              ",
"                  . @.' ) ) ) ) ) ) ) ) ) ) +.@.                ",
"                      D Y #.$.%.9 [ F &.q ~                     ",
"................................................................",
"................................................................"};
