/* XPM */
static char * 1_xpm[] = {
"32 32 26 1",
" 	c #FFFFFF",
".	c None",
"+	c #7E7E7E",
"@	c #000000",
"#	c #DCDCDC",
"$	c #FBFBFB",
"%	c #B4B4B4",
"&	c #222222",
"*	c #636363",
"=	c #F5F5F5",
"-	c #9F9F9F",
";	c #CFCFCF",
">	c #494949",
",	c #929292",
"'	c #A4A4A4",
")	c #626262",
"!	c #5A5A5A",
"~	c #D5D5D5",
"{	c #BBBBBB",
"]	c #161616",
"^	c #AEAEAE",
"/	c #F9F9F9",
"(	c #9A9A9A",
"_	c #E7E7E7",
":	c #E3E3E3",
"<	c #FAFAFA",
"................................",
"................................",
"             #+@@@@@@#          ",
"           $%&@@@@@@@#          ",
"          #*@@@@@@@@@#          ",
"        =-@@@@@@@@@@@#          ",
"       ;>@@@,'@@@@@@@#          ",
"       )@@!~ {@@@@@@@#          ",
"       )]^/  {@@@@@@@#          ",
"       (_    {@@@@@@@#          ",
"             {@@@@@@@#          ",
"             {@@@@@@@#          ",
"             {@@@@@@@#          ",
"             {@@@@@@@#          ",
"             {@@@@@@@#          ",
"             {@@@@@@@#          ",
"             {@@@@@@@#          ",
"             {@@@@@@@#          ",
"             {@@@@@@@#          ",
"             {@@@@@@@#          ",
"             {@@@@@@@#          ",
"             {@@@@@@@#          ",
"             {@@@@@@@#          ",
"             {@@@@@@@#          ",
"             {@@@@@@@#          ",
"             {@@@@@@@#          ",
"             {@@@@@@@#          ",
"             {@@@@@@@#          ",
"       :@@@@@@@@@@@@@@@@@@@<    ",
"       :@@@@@@@@@@@@@@@@@@@<    ",
"................................",
"................................"};
