/* XPM */
static char *wall_xpm[] = {
"32 32 3 1",
"  c #F8F8F8",
". c #BFBFBF",
"+ c #000000",
"                                ",
"                                ",
"                                ",
"            ....................",
"            ....................",
"            ....................",
"            ....................",
"            ....................",
"            ....................",
"            ....................",
"            ....................",
"            ....................",
"            ....................",
"            ....................",
"            ....................",
"            ....................",
"            ....................",
"            ....................",
"            ....................",
"            ....................",
"            ....................",
"            ....................",
"            ....................",
"            ....................",
"            ....................",
"            ....................",
"            ....................",
"            ....................",
"            ....................",
"            ....................",
"                                ",
"                                ",
"                                "
};