/* XPM */
static char * 2_xpm[] = {
"32 32 80 1",
" 	c #FFFFFF",
".	c #F2F2F2",
"+	c #D1D1D1",
"@	c #AFAFAF",
"#	c #909090",
"$	c #686868",
"%	c #4D4D4D",
"&	c #2A2A2A",
"*	c #2E2E2E",
"=	c #535353",
"-	c #6A6A6A",
";	c #949494",
">	c #BABABA",
",	c #DFDFDF",
"'	c #FEFEFE",
")	c #EEEEEE",
"!	c #BCBCBC",
"~	c #6E6E6E",
"{	c #000000",
"]	c #5D5D5D",
"^	c #C0C0C0",
"/	c #FCFCFC",
"(	c #969696",
"_	c #DEDEDE",
":	c #F8F8F8",
"<	c #C6C6C6",
"[	c #515151",
"}	c #696969",
"|	c #E7E7E7",
"1	c #F5F5F5",
"2	c #424242",
"3	c #E3E3E3",
"4	c #989898",
"5	c #EAEAEA",
"6	c #1C1C1C",
"7	c #5A5A5A",
"8	c #999999",
"9	c #B2B2B2",
"0	c #565656",
"a	c #A4A4A4",
"b	c #EBEBEB",
"c	c #F7F7F7",
"d	c #DBDBDB",
"e	c #FDFDFD",
"f	c #D2D2D2",
"g	c #F9F9F9",
"h	c #DCDCDC",
"i	c #F1F1F1",
"j	c #707070",
"k	c #B9B9B9",
"l	c #C7C7C7",
"m	c #404040",
"n	c #767676",
"o	c #3B3B3B",
"p	c #B3B3B3",
"q	c #E4E4E4",
"r	c #D0D0D0",
"s	c #797979",
"t	c #F0F0F0",
"u	c #D3D3D3",
"v	c #AAAAAA",
"w	c #FBFBFB",
"x	c #CACACA",
"y	c #B4B4B4",
"z	c #929292",
"A	c #C5C5C5",
"B	c #E6E6E6",
"C	c #626262",
"D	c #717171",
"E	c #C3C3C3",
"F	c #BEBEBE",
"G	c #262626",
"H	c #ABABAB",
"I	c #808080",
"J	c #D8D8D8",
"K	c #C8C8C8",
"L	c #383838",
"M	c #8C8C8C",
"N	c #F3F3F3",
"O	c #E9E9E9",
"        .+@#$%&*=-;>,'          ",
"     )!~{{{{{{{{{{{{{]^/        ",
"     %{{{{(_:/)<[{{{{{{}|       ",
"     %{{{^      1~{{{{{{23      ",
"     %{{4        56{{{{{{7:     ",
"     %{{5         8{{{{{{{9     ",
"     %{~          +{{{{{{{0'    ",
"     %{a          b{{{{{{{{5    ",
"                  c{{{{{{{{d    ",
"                  e{{{{{{{{f    ",
"                  g{{{{{{{{h    ",
"                  i{{{{{{{{.    ",
"                  d{{{{{{{j     ",
"                  k{{{{{{{l     ",
"                  }{{{{{{je     ",
"                 h{{{{{{m5      ",
"                en{{{{{o,       ",
"                p{{{{{%q        ",
"               r{{{{{st         ",
"              u6{{{{vw          ",
"             x6{{{=d            ",
"            y{{{{z1             ",
"          cz{{{*A               ",
"         BC{{{D5        +{{E    ",
"       'FG{{{Hw         +{{E    ",
"      )I{{{%J           +{{E    ",
"     KL{{{MN            +{{E    ",
"    O{{{{{{{{{{{{{{{{{{{{{{E    ",
"    O{{{{{{{{{{{{{{{{{{{{{{E    ",
"    O{{{{{{{{{{{{{{{{{{{{{{E    ",
"    O{{{{{{{{{{{{{{{{{{{{{{E    ",
"    O{{{{{{{{{{{{{{{{{{{{{{E    "};
