/* XPM */
static char * 3_xpm[] = {
"32 32 100 2",
"  	c #FFFFFF",
". 	c #FEFEFE",
"+ 	c #F0F0F0",
"@ 	c #DEDEDE",
"# 	c #CACACA",
"$ 	c #B2B2B2",
"% 	c #959595",
"& 	c #818181",
"* 	c #727272",
"= 	c #606060",
"- 	c #494949",
"; 	c #222222",
"> 	c #353535",
", 	c #515151",
"' 	c #6D6D6D",
") 	c #979797",
"! 	c #B9B9B9",
"~ 	c #E4E4E4",
"{ 	c #CDCDCD",
"] 	c #000000",
"^ 	c #5F5F5F",
"/ 	c #CCCCCC",
"( 	c #D5D5D5",
"_ 	c #F4F4F4",
": 	c #FDFDFD",
"< 	c #F7F7F7",
"[ 	c #DFDFDF",
"} 	c #A0A0A0",
"| 	c #868686",
"1 	c #AAAAAA",
"2 	c #D0D0D0",
"3 	c #7A7A7A",
"4 	c #6E6E6E",
"5 	c #A4A4A4",
"6 	c #BEBEBE",
"7 	c #C7C7C7",
"8 	c #E7E7E7",
"9 	c #626262",
"0 	c #E9E9E9",
"a 	c #323232",
"b 	c #EFEFEF",
"c 	c #5D5D5D",
"d 	c #E2E2E2",
"e 	c #565656",
"f 	c #E3E3E3",
"g 	c #FCFCFC",
"h 	c #262626",
"i 	c #F3F3F3",
"j 	c #E1E1E1",
"k 	c #767676",
"l 	c #D6D6D6",
"m 	c #C1C1C1",
"n 	c #B1B1B1",
"o 	c #F2F2F2",
"p 	c #8B8B8B",
"q 	c #2E2E2E",
"r 	c #949494",
"s 	c #CBCBCB",
"t 	c #F9F9F9",
"u 	c #DADADA",
"v 	c #F5F5F5",
"w 	c #ABABAB",
"x 	c #2A2A2A",
"y 	c #ECECEC",
"z 	c #656565",
"A 	c #161616",
"B 	c #EDEDED",
"C 	c #3B3B3B",
"D 	c #1C1C1C",
"E 	c #B5B5B5",
"F 	c #EBEBEB",
"G 	c #EEEEEE",
"H 	c #404040",
"I 	c #686868",
"J 	c #C0C0C0",
"K 	c #BCBCBC",
"L 	c #F8F8F8",
"M 	c #BDBDBD",
"N 	c #9C9C9C",
"O 	c #E5E5E5",
"P 	c #454545",
"Q 	c #FBFBFB",
"R 	c #C5C5C5",
"S 	c #F6F6F6",
"T 	c #585858",
"U 	c #D4D4D4",
"V 	c #999999",
"W 	c #BBBBBB",
"X 	c #4B4B4B",
"Y 	c #EAEAEA",
"Z 	c #777777",
"` 	c #0D0D0D",
" .	c #424242",
"..	c #D8D8D8",
"+.	c #B8B8B8",
"@.	c #9A9A9A",
"#.	c #757575",
"$.	c #555555",
"%.	c #383838",
"&.	c #DCDCDC",
"          . + @ # $ % & * = - ; > , ' ) ! ~                     ",
"          { ] ] ] ] ] ] ] ] ] ] ] ] ] ] ] ] ^ / .               ",
"          { ] ] ] ] & ( _ : < [ } ] ] ] ] ] ] ] | <             ",
"          { ] ] ] 1 .             2 ] ] ] ] ] ] ] 3 :           ",
"          { ] ] 4 :                 5 ] ] ] ] ] ] ] 6           ",
"          { ] ] 7                   8 ] ] ] ] ] ] ] 9           ",
"          { ] ] 0                   . a ] ] ] ] ] ] ] b         ",
"                                      c ] ] ] ] ] ] ] d         ",
"                                      e ] ] ] ] ] ] ] f         ",
"                                    g h ] ] ] ] ] ] ] i         ",
"                                    j ] ] ] ] ] ] ] k           ",
"                                    ) ] ] ] ] ] ] ] l           ",
"                                  m ] ] ] ] ] ] ] n             ",
"                          g o ( p ] ] ] ] ] ] - #               ",
"                        q ] ] ] ] ] ] ] > r s t                 ",
"                        q ] ] ] ] ] ] ] ] = } u :               ",
"                          : v @ w x ] ] ] ] ] ] 4 @             ",
"                                  y z ] ] ] ] ] ] A #           ",
"                                    B C ] ] ] ] ] ] D d         ",
"                                      E ] ] ] ] ] ] ] &         ",
"                                      F ] ] ] ] ] ] ] ] G       ",
"                                        H ] ] ] ] ] ] ] 2       ",
"                                        I ] ] ] ] ] ] ] J       ",
"                                        4 ] ] ] ] ] ] ] K       ",
"        L ] ] M                         , ] ] ] ] ] ] ] /       ",
"        L ] ] N                       o ] ] ] ] ] ] ] ] O       ",
"        L ] ] P Q                     R ] ] ] ] ] ] ] I         ",
"        L ] ] ] M                   S T ] ] ] ] ] ] ] l         ",
"        L ] ] ] D U               v & ] ] ] ] ] ] ] $           ",
"        L ] ] ] ] ] V u v : L 8 W X ] ] ] ] ] ] q R             ",
"          Y W Z ` ] ] ] ] ] ] ] ] ] ] ] ] ]  .1 o               ",
"                S ..+.@.#.$.%.D H T * @.! &.g                   "};
