/* XPM */
static char * 4_xpm[] = {
"32 32 47 1",
".	c None",
"  	c #FFFFFF",
"+	c #000000",
"@	c #E0E0E0",
"#	c #D1D1D1",
"$	c #F9F9F9",
"%	c #585858",
"&	c #B2B2B2",
"*	c #ECECEC",
"=	c #262626",
"-	c #8B8B8B",
";	c #D5D5D5",
">	c #8E8E8E",
",	c #FBFBFB",
"'	c #5F5F5F",
")	c #9F9F9F",
"!	c #BBBBBB",
"~	c #B7B7B7",
"{	c #353535",
"]	c #F2F2F2",
"^	c #EEEEEE",
"/	c #2A2A2A",
"(	c #BABABA",
"_	c #929292",
":	c #5A5A5A",
"<	c #FAFAFA",
"[	c #D8D8D8",
"}	c #D0D0D0",
"|	c #656565",
"1	c #7E7E7E",
"2	c #BCBCBC",
"3	c #E4E4E4",
"4	c #F0F0F0",
"5	c #979797",
"6	c #F1F1F1",
"7	c #DDDDDD",
"8	c #B9B9B9",
"9	c #FCFCFC",
"0	c #6C6C6C",
"a	c #C0C0C0",
"b	c #3B3B3B",
"c	c #7D7D7D",
"d	c #9D9D9D",
"e	c #E3E3E3",
"f	c #E8E8E8",
"g	c #DCDCDC",
"h	c #7C7C7C",
"................................",
"................................",
"                @+++++++@       ",
"               #++++++++@       ",
"              $%++++++++@       ",
"             -++++++++++@       ",
"            ;+++>+++++++@       ",
"           ,'++)!+++++++@       ",
"           ~++{]!+++++++@       ",
"          ^/++( !+++++++@       ",
"          _++:< !+++++++@       ",
"         [+++}  !+++++++@       ",
"        ,|++1   !+++++++@       ",
"        2+++3   !+++++++@       ",
"       4{++)    !+++++++@       ",
"       5++{6    !+++++++@       ",
"      7+++8     !+++++++@       ",
"     90++:<     !+++++++@       ",
"     a+++}      !+++++++@       ",
"    ]b++c       !+++++++@       ",
"    d+++e       !+++++++@       ",
"   f+++d        !+++++++@       ",
"   g+++++++++++++++++++++++++!  ",
"   g+++++++++++++++++++++++++!  ",
"                !+++++++@       ",
"                !+++++++@       ",
"                !+++++++@       ",
"                !+++++++@       ",
"           <++++++++++++++++h   ",
"           <++++++++++++++++h   ",
"................................",
"................................"};
