/* XPM */
static char * 5_xpm[] = {
"32 32 82 1",
" 	c #FFFFFF",
".	c #EDEDED",
"+	c #000000",
"@	c #979797",
"#	c #DADADA",
"$	c #FCFCFC",
"%	c #D9D9D9",
"&	c #A9A9A9",
"*	c #7C7C7C",
"=	c #4F4F4F",
"-	c #262626",
";	c #3B3B3B",
">	c #5F5F5F",
",	c #7A7A7A",
"'	c #AAAAAA",
")	c #CFCFCF",
"!	c #F7F7F7",
"~	c #9F9F9F",
"{	c #585858",
"]	c #353535",
"^	c #A8A8A8",
"/	c #F3F3F3",
"(	c #2A2A2A",
"_	c #B2B2B2",
":	c #E8E8E8",
"<	c #F9F9F9",
"[	c #E5E5E5",
"}	c #ABABAB",
"|	c #161616",
"1	c #474747",
"2	c #D4D4D4",
"3	c #555555",
"4	c #E7E7E7",
"5	c #1C1C1C",
"6	c #CDCDCD",
"7	c #F0F0F0",
"8	c #777777",
"9	c #797979",
"0	c #B3B3B3",
"a	c #DFDFDF",
"b	c #F5F5F5",
"c	c #727272",
"d	c #FEFEFE",
"e	c #848484",
"f	c #D7D7D7",
"g	c #AFAFAF",
"h	c #A5A5A5",
"i	c #C7C7C7",
"j	c #696969",
"k	c #D0D0D0",
"l	c #3D3D3D",
"m	c #CECECE",
"n	c #383838",
"o	c #C5C5C5",
"p	c #656565",
"q	c #ADADAD",
"r	c #F6F6F6",
"s	c #818181",
"t	c #D2D2D2",
"u	c #D5D5D5",
"v	c #0D0D0D",
"w	c #636363",
"x	c #FBFBFB",
"y	c #868686",
"z	c #AEAEAE",
"A	c #BABABA",
"B	c #C0C0C0",
"C	c #8B8B8B",
"D	c #F4F4F4",
"E	c #FDFDFD",
"F	c #E2E2E2",
"G	c #A4A4A4",
"H	c #C9C9C9",
"I	c #959595",
"J	c #323232",
"K	c #2E2E2E",
"L	c #A2A2A2",
"M	c #EFEFEF",
"N	c #BEBEBE",
"O	c #7D7D7D",
"P	c #404040",
"Q	c #7E7E7E",
"                                ",
"      .++++++++++++++++++@      ",
"      .++++++++++++++++++@      ",
"      .++++++++++++++++++@      ",
"      .++++++++++++++++++@      ",
"      .++++++++++++++++++@      ",
"      .++#                      ",
"      .++#                      ",
"      .++#                      ",
"      .++#                      ",
"      .++#                      ",
"      .++#$%&*=-;>,')!          ",
"      .++~{++++++++++]^/        ",
"      .+++(_:<<[}|+++++12       ",
"      .++34      %5++++++6      ",
"      7894        0++++++5a     ",
"                  b|++++++cd    ",
"                   e+++++++f    ",
"                   g+++++++h    ",
"                   i+++++++j    ",
"                   k+++++++l    ",
"                   2++++++++$   ",
"                   m+++++++n    ",
"                   o+++++++p    ",
"     0+;           q+++++++~    ",
"     0++r          s+++++++t    ",
"     0++u         /v++++++wx    ",
"     0++y         z+++++++f     ",
"     0+++A       2|++++++B      ",
"     0++++CfDE!FGv+++++;H       ",
"     <tIJ++++++++++++KLM        ",
"        $FN~O{l5P>Q'm!          "};
