/* XPM */
static char * 6_xpm[] = {
"32 32 109 2",
"..	c None",
"  	c #FFFFFF",
". 	c #E8E8E8",
"+ 	c #BDBDBD",
"@ 	c #949494",
"# 	c #6D6D6D",
"$ 	c #454545",
"% 	c #222222",
"& 	c #383838",
"* 	c #5A5A5A",
"= 	c #717171",
"- 	c #838383",
"; 	c #9F9F9F",
"> 	c #B9B9B9",
", 	c #D3D3D3",
"' 	c #ECECEC",
") 	c #FEFEFE",
"! 	c #D4D4D4",
"~ 	c #737373",
"{ 	c #000000",
"] 	c #CFCFCF",
"^ 	c #F5F5F5",
"/ 	c #8D8D8D",
"( 	c #E7E7E7",
"_ 	c #F6F6F6",
": 	c #FDFDFD",
"< 	c #F3F3F3",
"[ 	c #D6D6D6",
"} 	c #878787",
"| 	c #F1F1F1",
"1 	c #626262",
"2 	c #767676",
"3 	c #ADADAD",
"4 	c #F9F9F9",
"5 	c #6A6A6A",
"6 	c #F2F2F2",
"7 	c #848484",
"8 	c #A3A3A3",
"9 	c #BABABA",
"0 	c #E4E4E4",
"a 	c #F0F0F0",
"b 	c #959595",
"c 	c #696969",
"d 	c #161616",
"e 	c #9B9B9B",
"f 	c #C8C8C8",
"g 	c #B6B6B6",
"h 	c #9A9A9A",
"i 	c #C7C7C7",
"j 	c #5C5C5C",
"k 	c #CDCDCD",
"l 	c #DEDEDE",
"m 	c #808080",
"n 	c #515151",
"o 	c #2A2A2A",
"p 	c #3B3B3B",
"q 	c #636363",
"r 	c #8E8E8E",
"s 	c #C1C1C1",
"t 	c #A9A9A9",
"u 	c #EAEAEA",
"v 	c #D9D9D9",
"w 	c #CBCBCB",
"x 	c #D5D5D5",
"y 	c #757575",
"z 	c #FBFBFB",
"A 	c #D7D7D7",
"B 	c #656565",
"C 	c #B2B2B2",
"D 	c #ABABAB",
"E 	c #E0E0E0",
"F 	c #CACACA",
"G 	c #DDDDDD",
"H 	c #EEEEEE",
"I 	c #D8D8D8",
"J 	c #9E9E9E",
"K 	c #E5E5E5",
"L 	c #F7F7F7",
"M 	c #727272",
"N 	c #EFEFEF",
"O 	c #565656",
"P 	c #424242",
"Q 	c #404040",
"R 	c #888888",
"S 	c #B8B8B8",
"T 	c #7E7E7E",
"U 	c #EDEDED",
"V 	c #858585",
"W 	c #E1E1E1",
"X 	c #0D0D0D",
"Y 	c #969696",
"Z 	c #686868",
"` 	c #D2D2D2",
" .	c #8C8C8C",
"+.	c #FCFCFC",
"@.	c #5D5D5D",
"#.	c #DADADA",
"$.	c #FAFAFA",
"%.	c #B0B0B0",
"&.	c #707070",
"*.	c #7F7F7F",
"=.	c #DCDCDC",
"-.	c #BBBBBB",
";.	c #898989",
">.	c #6C6C6C",
",.	c #494949",
"'.	c #4B4B4B",
").	c #919191",
"!.	c #E6E6E6",
"................................................................",
"................................................................",
"                        . + @ # $ % & * = - ; > , ' )           ",
"                    ! ~ { { { { { { { { { { { { { { ]           ",
"                ^ / { { { { $ > ( _ : < [ } { { { { ]           ",
"              | 1 { { { { 2 <               3 { { { ]           ",
"            4 5 { { { { $ 6                   7 { { ]           ",
"            8 { { { { { 9                     [ { { ]           ",
"          0 { { { { { { a                                       ",
"        < d { { { { { e                                         ",
"        h { { { { { { i                                         ",
"        j { { { { { { k ) l 3 m n o p q r s a                   ",
"      4 { { { { { { { 8 c { { { { { { { { { % t 4               ",
"      u { { { { { { { { { j v 4 _ w p { { { { { = a             ",
"      l { { { { { { { { % u         x { { { { { { y z           ",
"      A { { { { { { { { b             B { { { { { { C           ",
"      , { { { { { { { { i             D { { { { { { & _         ",
"      x { { { { { { { { E             F { { { { { { { F         ",
"      G { { { { { { { { H             I { { { { { { { J         ",
"      K { { { { { { { { L             0 { { { { { { { M         ",
"        R { { { { { { { z             ( { { { { { { { 1         ",
"        S { { { { { { { L             0 { { { { { { { T         ",
"        U { { { { { { { H             I { { { { { { { 3         ",
"          V { { { { { { W             F { { { { { { { I         ",
"          E X { { { { { f             D { { { { { { B :         ",
"            3 { { { { { Y             Z { { { { { { `           ",
"            z  .{ { { { % ..        [ { { { { { { 3             ",
"              +.e { { { { @.#.$.L k p { { { { { %.)             ",
"                  v &.{ { { { { { { { { { { *.=.                ",
"                    ) 0 -.;.>.,.% '.Z ).+ !.                    ",
"................................................................",
"................................................................"};
