/* XPM */
static char * 7_xpm[] = {
"32 32 63 1",
".	c None",
"  	c #FFFFFF",
"+	c #000000",
"@	c #8C8C8C",
"#	c #A8A8A8",
"$	c #F0F0F0",
"%	c #F8F8F8",
"&	c #454545",
"*	c #1C1C1C",
"=	c #EEEEEE",
"-	c #BDBDBD",
";	c #A0A0A0",
">	c #F9F9F9",
",	c #4B4B4B",
"'	c #161616",
")	c #ECECEC",
"!	c #BFBFBF",
"~	c #9D9D9D",
"{	c #FAFAFA",
"]	c #4F4F4F",
"^	c #0D0D0D",
"/	c #EAEAEA",
"(	c #C2C2C2",
"_	c #999999",
":	c #FBFBFB",
"<	c #535353",
"[	c #E8E8E8",
"}	c #C4C4C4",
"|	c #949494",
"1	c #565656",
"2	c #E6E6E6",
"3	c #C7C7C7",
"4	c #919191",
"5	c #FCFCFC",
"6	c #5C5C5C",
"7	c #E4E4E4",
"8	c #C9C9C9",
"9	c #606060",
"0	c #E2E2E2",
"a	c #CBCBCB",
"b	c #878787",
"c	c #FDFDFD",
"d	c #636363",
"e	c #DFDFDF",
"f	c #CDCDCD",
"g	c #838383",
"h	c #FEFEFE",
"i	c #686868",
"j	c #DCDCDC",
"k	c #D0D0D0",
"l	c #7E7E7E",
"m	c #6C6C6C",
"n	c #DADADA",
"o	c #D2D2D2",
"p	c #797979",
"q	c #707070",
"r	c #D7D7D7",
"s	c #D4D4D4",
"t	c #757575",
"u	c #737373",
"v	c #D5D5D5",
"w	c #D6D6D6",
"x	c #787878",
"................................",
"................................",
"     @+++++++++++++++++++++@    ",
"     @+++++++++++++++++++++@    ",
"     @+++++++++++++++++++++@    ",
"     @+++++++++++++++++++++@    ",
"     @+++++++++++++++++++++#    ",
"     @++$             %&++*=    ",
"     @++$             -+++;     ",
"     @++$            >,++')     ",
"     @++$            !+++~      ",
"                    {]++^/      ",
"                    (+++_       ",
"                   :<+++[       ",
"                   }+++|        ",
"                  :1+++2        ",
"                  3+++4         ",
"                 56+++7         ",
"                 8+++@          ",
"                59+++0          ",
"                a+++b           ",
"               cd+++e           ",
"               f+++g            ",
"              k+++l             ",
"             hm+++n             ",
"             o+++p              ",
"            hq+++r              ",
"            s+++t               ",
"            u+++v               ",
"           w+++qh               ",
"           x+++o                ",
"................................",
"................................"};
