/* XPM */
static char * 8_xpm[] = {
"32 32 114 2",
"  	c #FFFFFF",
". 	c #F4F4F4",
"+ 	c #CACACA",
"@ 	c #A6A6A6",
"# 	c #7E7E7E",
"$ 	c #5A5A5A",
"% 	c #404040",
"& 	c #1C1C1C",
"* 	c #3B3B3B",
"= 	c #565656",
"- 	c #777777",
"; 	c #A0A0A0",
"> 	c #C3C3C3",
", 	c #EEEEEE",
"' 	c #ECECEC",
") 	c #949494",
"! 	c #161616",
"~ 	c #000000",
"{ 	c #828282",
"] 	c #E2E2E2",
"^ 	c #CDCDCD",
"/ 	c #222222",
"( 	c #9E9E9E",
"_ 	c #EDEDED",
": 	c #FCFCFC",
"< 	c #F1F1F1",
"[ 	c #B2B2B2",
"} 	c #B6B6B6",
"| 	c #D4D4D4",
"1 	c #757575",
"2 	c #FEFEFE",
"3 	c #999999",
"4 	c #BBBBBB",
"5 	c #F8F8F8",
"6 	c #4D4D4D",
"7 	c #C0C0C0",
"8 	c #D8D8D8",
"9 	c #EBEBEB",
"0 	c #CECECE",
"a 	c #DBDBDB",
"b 	c #F0F0F0",
"c 	c #B4B4B4",
"d 	c #A1A1A1",
"e 	c #E8E8E8",
"f 	c #787878",
"g 	c #8A8A8A",
"h 	c #535353",
"i 	c #858585",
"j 	c #494949",
"k 	c #E9E9E9",
"l 	c #FDFDFD",
"m 	c #D0D0D0",
"n 	c #DCDCDC",
"o 	c #F2F2F2",
"p 	c #B5B5B5",
"q 	c #656565",
"r 	c #C2C2C2",
"s 	c #3D3D3D",
"t 	c #F3F3F3",
"u 	c #E7E7E7",
"v 	c #454545",
"w 	c #797979",
"x 	c #9F9F9F",
"y 	c #262626",
"z 	c #D7D7D7",
"A 	c #818181",
"B 	c #B7B7B7",
"C 	c #6C6C6C",
"D 	c #DDDDDD",
"E 	c #4B4B4B",
"F 	c #969696",
"G 	c #D5D5D5",
"H 	c #838383",
"I 	c #2E2E2E",
"J 	c #323232",
"K 	c #383838",
"L 	c #F5F5F5",
"M 	c #555555",
"N 	c #ABABAB",
"O 	c #FAFAFA",
"P 	c #D6D6D6",
"Q 	c #686868",
"R 	c #9D9D9D",
"S 	c #2A2A2A",
"T 	c #A7A7A7",
"U 	c #C4C4C4",
"V 	c #E6E6E6",
"W 	c #ADADAD",
"X 	c #E4E4E4",
"Y 	c #808080",
"Z 	c #D2D2D2",
"` 	c #515151",
" .	c #7D7D7D",
"..	c #D1D1D1",
"+.	c #474747",
"@.	c #707070",
"#.	c #B8B8B8",
"$.	c #BEBEBE",
"%.	c #A4A4A4",
"&.	c #9B9B9B",
"*.	c #626262",
"=.	c #8F8F8F",
"-.	c #7C7C7C",
";.	c #0D0D0D",
">.	c #353535",
",.	c #C1C1C1",
"'.	c #696969",
").	c #6E6E6E",
"!.	c #5D5D5D",
"~.	c #EAEAEA",
"{.	c #585858",
"].	c #717171",
"^.	c #BCBCBC",
"/.	c #E3E3E3",
"                    . + @ # $ % & * = - ; > ,                   ",
"                ' ) ! ~ ~ ~ ~ ~ ~ ~ ~ ~ ~ ~ ~ { ]               ",
"              ^ / ~ ~ ~ ~ ~ ( _ : < [ ~ ~ ~ ~ ~ ~ }             ",
"            | ~ ~ ~ ~ ~ ~ 1 2         3 ~ ~ ~ ~ ~ ~ 4           ",
"          5 6 ~ ~ ~ ~ ~ ~ 7           8 ~ ~ ~ ~ ~ ~ / 9         ",
"          0 ~ ~ ~ ~ ~ ~ ~ a           b ~ ~ ~ ~ ~ ~ ~ c         ",
"          d ~ ~ ~ ~ ~ ~ ~ e           : ~ ~ ~ ~ ~ ~ ~ f         ",
"          g ~ ~ ~ ~ ~ ~ ~ _             & ~ ~ ~ ~ ~ ~ h         ",
"          i ~ ~ ~ ~ ~ ~ ~ _             / ~ ~ ~ ~ ~ ~ j         ",
"          ; ~ ~ ~ ~ ~ ~ ~ k           l ~ ~ ~ ~ ~ ~ ~ f         ",
"          m ~ ~ ~ ~ ~ ~ ~ n           o ~ ~ ~ ~ ~ ~ ~ p         ",
"          : q ~ ~ ~ ~ ~ ~ r           a ~ ~ ~ ~ ~ ~ s t         ",
"            u v ~ ~ ~ ~ ~ w 2         x ~ ~ ~ ~ ~ y z           ",
"              ' A ~ ~ ~ ~ ~ ; _ l o B ~ ~ ~ ~ ~ C ]             ",
"                  D ; E ~ ~ ~ ~ ~ ~ ~ ~ ~ * F G l               ",
"                t 7 H I ~ ~ ~ ~ ~ ~ ~ ~ ~ & w } ,               ",
"            2 4 J ~ ~ ~ ~ K r < : L 0 M ~ ~ ~ ~ ! N O           ",
"          l F ~ ~ ~ ~ ~ ~ P           k ! ~ ~ ~ ~ ~ # 5         ",
"          B ~ ~ ~ ~ ~ ~ Q               ) ~ ~ ~ ~ ~ ~ R         ",
"        . S ~ ~ ~ ~ ~ ~ T               U ~ ~ ~ ~ ~ ~ ~ V       ",
"        U ~ ~ ~ ~ ~ ~ ~ 7               8 ~ ~ ~ ~ ~ ~ ~ W       ",
"        3 ~ ~ ~ ~ ~ ~ ~ ^               X ~ ~ ~ ~ ~ ~ ~ -       ",
"        Y ~ ~ ~ ~ ~ ~ ~ Z               k ~ ~ ~ ~ ~ ~ ~ `       ",
"         .~ ~ ~ ~ ~ ~ ~ ..              e ~ ~ ~ ~ ~ ~ ~ +.      ",
"        ) ~ ~ ~ ~ ~ ~ ~ ^               X ~ ~ ~ ~ ~ ~ ~ @.      ",
"        #.~ ~ ~ ~ ~ ~ ~ $.              z ~ ~ ~ ~ ~ ~ ~ R       ",
"        k ~ ~ ~ ~ ~ ~ ~ %.              r ~ ~ ~ ~ ~ ~ ~ P       ",
"          &.~ ~ ~ ~ ~ ~ *.              =.~ ~ ~ ~ ~ ~ -.2       ",
"          L Q ~ ~ ~ ~ ~ ~ Z           u ;.~ ~ ~ ~ ~ 6 9         ",
"            L { ~ ~ ~ ~ ~ >.,.< l L ^ ` ~ ~ ~ ~ ~ '._           ",
"                ..).~ ~ ~ ~ ~ ~ ~ ~ ~ ~ ~ ~ ~ !.U :             ",
"                    ~.,.; - {.% & * M ].&.^./.                  "};
