/* XPM */
static char * 9_xpm[] = {
"32 32 98 2",
"  	c #FFFFFF",
". 	c #EFEFEF",
"+ 	c #C5C5C5",
"@ 	c #9C9C9C",
"# 	c #707070",
"$ 	c #555555",
"% 	c #2A2A2A",
"& 	c #424242",
"* 	c #686868",
"= 	c #828282",
"- 	c #B2B2B2",
"; 	c #DDDDDD",
"> 	c #FCFCFC",
", 	c #EBEBEB",
"' 	c #969696",
") 	c #161616",
"! 	c #000000",
"~ 	c #565656",
"{ 	c #CBCBCB",
"] 	c #FEFEFE",
"^ 	c #CDCDCD",
"/ 	c #353535",
"( 	c #B5B5B5",
"_ 	c #F1F1F1",
": 	c #FBFBFB",
"< 	c #E5E5E5",
"[ 	c #7D7D7D",
"} 	c #F6F6F6",
"| 	c #D1D1D1",
"1 	c #AFAFAF",
"2 	c #FAFAFA",
"3 	c #606060",
"4 	c #6C6C6C",
"5 	c #F2F2F2",
"6 	c #EDEDED",
"7 	c #0D0D0D",
"8 	c #C1C1C1",
"9 	c #848484",
"0 	c #9E9E9E",
"a 	c #717171",
"b 	c #E9E9E9",
"c 	c #FDFDFD",
"d 	c #1C1C1C",
"e 	c #494949",
"f 	c #D4D4D4",
"g 	c #D2D2D2",
"h 	c #B3B3B3",
"i 	c #C0C0C0",
"j 	c #757575",
"k 	c #8D8D8D",
"l 	c #A3A3A3",
"m 	c #C4C4C4",
"n 	c #3D3D3D",
"o 	c #949494",
"p 	c #C7C7C7",
"q 	c #ECECEC",
"r 	c #9D9D9D",
"s 	c #D3D3D3",
"t 	c #ACACAC",
"u 	c #C9C9C9",
"v 	c #BEBEBE",
"w 	c #9F9F9F",
"x 	c #B4B4B4",
"y 	c #7C7C7C",
"z 	c #727272",
"A 	c #B0B0B0",
"B 	c #D7D7D7",
"C 	c #F3F3F3",
"D 	c #C2C2C2",
"E 	c #B6B6B6",
"F 	c #B1B1B1",
"G 	c #626262",
"H 	c #BFBFBF",
"I 	c #838383",
"J 	c #474747",
"K 	c #4F4F4F",
"L 	c #DEDEDE",
"M 	c #F8F8F8",
"N 	c #CACACA",
"O 	c #9B9B9B",
"P 	c #696969",
"Q 	c #454545",
"R 	c #222222",
"S 	c #737373",
"T 	c #E7E7E7",
"U 	c #5D5D5D",
"V 	c #D9D9D9",
"W 	c #D8D8D8",
"X 	c #5C5C5C",
"Y 	c #EEEEEE",
"Z 	c #DBDBDB",
"` 	c #7A7A7A",
" .	c #383838",
"..	c #EAEAEA",
"+.	c #A4A4A4",
"@.	c #878787",
"#.	c #6A6A6A",
"$.	c #898989",
"                    . + @ # $ % & * = - ; >                     ",
"                , ' ) ! ! ! ! ! ! ! ! ! ! ~ { ]                 ",
"              ^ / ! ! ! ! ! ( _ : < = ! ! ! ! [ }               ",
"            | ! ! ! ! ! ! 1         2 3 ! ! ! ! 4 5             ",
"          6 % ! ! ! ! ! 7 5           8 ! ! ! ! ! 9 ]           ",
"          0 ! ! ! ! ! ! a             b ! ! ! ! ! ! +           ",
"        } ) ! ! ! ! ! ! 0             c d ! ! ! ! ! e :         ",
"        f ! ! ! ! ! ! ! -               ~ ! ! ! ! ! ! g         ",
"        h ! ! ! ! ! ! ! i               j ! ! ! ! ! ! k         ",
"        l ! ! ! ! ! ! ! m               [ ! ! ! ! ! ! n ]       ",
"        o ! ! ! ! ! ! ! p               = ! ! ! ! ! ! ! q       ",
"        r ! ! ! ! ! ! ! m               [ ! ! ! ! ! ! ! s       ",
"        t ! ! ! ! ! ! ! i               j ! ! ! ! ! ! ! p       ",
"        u ! ! ! ! ! ! ! -               ~ ! ! ! ! ! ! ! v       ",
"        q ! ! ! ! ! ! ! w             c d ! ! ! ! ! ! ! x       ",
"          y ! ! ! ! ! ! z             b ! ! ! ! ! ! ! ! A       ",
"          B ! ! ! ! ! ! ) C           D ! ! ! ! ! ! ! ! E       ",
"            l ! ! ! ! ! ! F         2 G ! ! ! ! ! ! ! ! H       ",
"            : ' ! ! ! ! ! 7 E 5 : < I ! ! ! ! ! ! ! ! ! ^       ",
"                8 J ! ! ! ! ! ! ! ! ! K ( ! ! ! ! ! ! ! L       ",
"                  M N O P Q R e S l f : q ! ! ! ! ! ! ! C       ",
"                                        T ! ! ! ! ! ! U         ",
"                                        V ! ! ! ! ! ! l         ",
"                                        m ! ! ! ! ! ! W         ",
"                                        l ! ! ! ! ! X c         ",
"                                        ~ ! ! ! ! ! +           ",
"          Y ! ! -                     Z ! ! ! ! ! a c           ",
"          Y ! ! Q M                 > ` ! ! ! !  ...            ",
"          Y ! ! ! I 2             : r ! ! ! ! / L               ",
"          Y ! ! ! ! P { . > 2 6 p * ! ! ! ! P T                 ",
"          Y ! ! ! ! ! ! ! ! ! ! ! ! ! ! $ i :                   ",
"            _ W v +.@.#.J % )  .G $.h ; c                       "};
