/* XPM */
static char *result[] = {
/* columns rows colors chars-per-pixel */
"32 32 12 1 ",
"  c black",
". c #101010",
"X c #202020",
"o c gray19",
"O c gray25",
"+ c #505050",
"@ c #606060",
"# c gray44",
"$ c #808080",
"% c #909090",
"& c #A0A0A0",
"* c None",
/* pixels */
"                                ",
" X$+@@&&$+@@@+&&#@+OO+@&&$+@@$X ",
" o&oO$oO$oooO&#@+OoooO+%oO$O+%o ",
" &o+%oOo+O&&@#Xo@X&&@&OoOoO%O+% ",
" %oO&o+oO&@@++&+#+@#&@#o@Oo&o+$ ",
" O%&$O+O&@#ooo@&@OooO#%@O+O$&&O ",
" o+OO@O+Ooo+OOo@+o+Ooooo++$OO+o ",
" XoooXXooXXXXooXXXoooXXXXXXXXXX ",
" XXoXoX.                XXoXoX. ",
" X@oX+o. ************** X@oX+o. ",
" oOXX+oX ************** oOXX+oX ",
" ooO+OXX ************** ooO+OXX ",
" X#++OX. ************** X#++OX. ",
" oO#+OoX ************** oO#+OoX ",
" +X+OXOX ************** +X+OXOX ",
" oX.X.oX ************** oX.X.oX ",
" X@XX+X. ************** X@XX+X. ",
" XO#+OX. ************** XO#+OX. ",
" ooO+XoX ************** ooO+XoX ",
" o+XXOoX ************** o+XXOoX ",
" oX#OXoX ************** oX#OXoX ",
" X@.X+X. ************** X@.X+X. ",
" X#X.#oX ************** X#X.#oX ",
" OX.XoOX ************** OX.XoOX ",
" o#X.OoX ************** o#X.OoX ",
" o+X.+oX ************** o+X.+oX ",
" oO..+X. ************** oO..+X. ",
" OXXXXOX ************** OXXXXOX ",
"@####@@@+ ************ @####@@@+",
"#+O+++O+o ************ #+O+++O+o",
"#O+O+OOOo ************ #O+O+OOOo",
"oXXXXXXXX ************ oXXXXXXXX"
};
