/* XPM */
static char * coin_03_xpm[] = {
"32 32 6 1",
" 	c None",
".	c #6C3B4F",
"+	c #F29546",
"@	c #FBFCAA",
"#	c #FFCE00",
"$	c #B8614E",
"             ......             ",
"            .++++@@.            ",
"           .++++###@.           ",
"          .++++#####@.          ",
"         .++++###+++#@.         ",
"        .++++###+###+#@.        ",
"        .++++###+###+##.        ",
"       .++++###+#####+#@.       ",
"       .++++###+#@@@#+##.       ",
"       .++++###+#####+##.       ",
"      .$+++#######+#####@.      ",
"      .$+++########+#####.      ",
"      .$+++#######@######.      ",
"      .$+++######+#######.      ",
"      .$$++#####+##@+####.      ",
"      .$$++#####@#+#@####.      ",
"      .$$++######@#######.      ",
"      .$$++#######@#####+.      ",
"       .$$++###@#####@##.       ",
"       .$$++###@#+++#@##.       ",
"       .$$++###@#####@#+.       ",
"        .$$++###@###@##.        ",
"        .$$++###@###@#+.        ",
"         .$$++###@@@#+.         ",
"          .$$++#####+.          ",
"           .$$++###+.           ",
"            .$$++#+.            ",
"             ......             ",
"                                ",
"                                ",
"                                ",
"                                "};
