/* XPM */
static char * cat_64_right_00__xpm[] = {
"64 32 13 1",
" 	c None",
".	c #5B4211",
"+	c #EDB951",
"@	c #E3A324",
"#	c #AF5F1D",
"$	c #C38811",
"%	c #C27635",
"&	c #C3D5EF",
"*	c #2E1E22",
"=	c #D9D9DD",
"-	c #E6F7FF",
";	c #928A8C",
">	c #5C3000",
"                                                                ",
"                                                                ",
"                                                                ",
"                                                                ",
"                                                                ",
"                                                                ",
"                                                                ",
"                                                                ",
"                                                                ",
"                    .                                           ",
"                   .+.                                          ",
"     ...          .@#+..                                        ",
"    .+++.        .$+%#.$..                                      ",
"   .+@.$@.       .@+%+@@@$.                                     ",
"   .+. ..       .$@+@++++@$.                                    ",
"   .+.          .@@+++++++@.                                    ",
"   .+.         .$@+++++++++$.                                   ",
"   .@.   ......$@@++++@...@@.                                   ",
"   .$@...$$@@@@@@@++++$&*=$@.                                   ",
"    .$.$@++++++++@++++@-*;$+@.                                  ",
"     .$@+++++++++++++++@>>@+*.                                  ",
"    .$@++++++++++++@+++++++@$.                                  ",
"    .$@+++++@++++++@@@++++@$.                                   ",
"    .$@+++++$@@@@++@$$@@$$..                                    ",
"    .$@++++@$$$@$++@$.....                                      ",
"     .$@+@$......++@.                                           ",
"     .$@@$.     .@++.                                           ",
"     .$++$.     .@++.                                           ",
"      .++@.     .$++@.                                          ",
"      .@++.      .@++.                                          ",
"       ...        ...                                           ",
"                                                                "};
