/* XPM */
static char * cat_back_00_xpm[] = {
"32 32 5 1",
" 	c None",
".	c #5B4211",
"+	c #E3A324",
"@	c #C38811",
"#	c #EDB951",
"                                ",
"                                ",
"                                ",
"                                ",
"            .       .           ",
"           .+.     .+.          ",
"          .@#+.....+#@.         ",
"          .+##.+++.##+.         ",
"         .@+#########+@.        ",
"         .@###########@.        ",
"         .+###########+.        ",
"         .+###########+.        ",
"         .@+#########+@.        ",
"         .@@+++###+++@@.        ",
"         .@.@+#####+@.@.        ",
"          .@+#######+@.         ",
"          .++##....#++.         ",
"          .@@+.####.@@.         ",
"          .@+.#+..@+.@.         ",
"          ..#.#.##..#..         ",
"          .@#.#.#####@.         ",
"          .+#.#.+####+.         ",
"          .+#.+#.@###+.         ",
"          .++#.@####++.         ",
"          .@+++++++++@.         ",
"          .@@@.@@@.@@@.         ",
"          .@+@.....@+@.         ",
"          .+#@.   .@#+.         ",
"          .##+.   .+##.         ",
"          .+##.   .##+.         ",
"           ...     ...          ",
"                                "};
