/* XPM */
static char *result[] = {
/* columns rows colors chars-per-pixel */
"32 32 97 2 ",
"   c #000103",
".  c #04050A",
"X  c #07090F",
"o  c #060911",
"O  c #090C13",
"+  c #0B0F19",
"@  c #0C121C",
"#  c #11141C",
"$  c #1D1D1E",
"%  c #2F2C1E",
"&  c #111621",
"*  c #151925",
"=  c #1B1E25",
"-  c #151B29",
";  c #191E2B",
":  c #1E2125",
">  c #1E232B",
",  c #1F2532",
"<  c #272624",
"1  c #2F2C20",
"2  c #22252D",
"3  c #272C2D",
"4  c #292B2C",
"5  c #222631",
"6  c #262B34",
"7  c #2A2D35",
"8  c #2A2F39",
"9  c #2E3135",
"0  c #273139",
"q  c #2D323C",
"w  c #333434",
"e  c #353934",
"r  c #393A37",
"t  c #32353A",
"y  c #35393D",
"u  c #3B3C3B",
"i  c #3D413C",
"p  c #57512C",
"a  c #41423E",
"s  c #49473B",
"d  c #494D3E",
"f  c #5D5C35",
"g  c #625D3A",
"h  c #66613D",
"j  c #68633E",
"k  c #6A683F",
"l  c #313640",
"z  c #353A44",
"x  c #393C41",
"c  c #3E4042",
"v  c #3D424B",
"b  c #444542",
"n  c #464944",
"m  c #4A4B46",
"M  c #43464A",
"N  c #4B4C4A",
"B  c #4E5145",
"V  c #4E504C",
"C  c #525245",
"Z  c #53534C",
"A  c #55584A",
"S  c #5A594E",
"D  c #555652",
"F  c #585750",
"G  c #575855",
"H  c #5C5C53",
"J  c #5E5F5B",
"K  c #635E43",
"L  c #605F55",
"P  c #5F6253",
"I  c #676342",
"U  c #6A6441",
"Y  c #6E6945",
"T  c #6B664A",
"R  c #6D694C",
"E  c #716D46",
"W  c #736E4B",
"Q  c #77714B",
"!  c #7A754E",
"~  c #7E7C4F",
"^  c #616156",
"/  c #696753",
"(  c #65655A",
")  c #66695A",
"_  c #69685D",
"`  c #706D5A",
"'  c #767151",
"]  c #7A7653",
"[  c #7E7952",
"{  c #636460",
"}  c #6D6C62",
"|  c #706F64",
" . c #757469",
".. c #79786D",
"X. c #827C55",
"o. c #878159",
"O. c #8F8A61",
/* pixels */
". % .     .     .     .   X     X .     o . <   . . o . X .     ",
"h a U U L T .   . . ..O.X.}       j f g A A E d P ) ~ A P .   . ",
"E m a a b S u . .  .J ( D D l   d C w B i A v B 0 0 B B i d # # ",
"Q d m a t y w X   ' ( z Z m , . k a B B B i i B d B 0 c i 0 >   ",
"p x b 7 = m b #   j b n u 7 7 % f m d > 3 n i i = i i , i i 3   ",
"( N Z m w M t O X F 2 u 7 N # < P s A n B > i i i = i i i i > . ",
"Z b 7 < u 6 M ;     < : a y + < S ) e i 0 > i 9 i = i i d : X X ",
"r 7 8 + O * * O   $ 5 O & * .   . # 3 @ >   @ o X O +   @ @ .   ",
"= #   . X O % 1     .     %   X   .     X . .   .         1   . ",
"( L       < ! g F     X E g j Z A ] X.Q F L F S .   . Q Q H o. .",
"M ^ V ; < | G V Z v   C M S L m m V L / a b 5 u 0   R P a t b x ",
"m x N ;   X.D V D c   Q H N D N t v z N u a a y #   I e Z r 6 m ",
"w t a & 1 V 7 m 5 6 # ] u l N x b D V l u 7 u a = . g t w 2 w w ",
"6 u > o . W V x D > < H b D N 6 D z 8 N a 7 a 8 -   _ A 7 t 2 w ",
"* a O # . L 6 b l @ . F b x b m v z 5 q t a u 8 *   H D m b e a ",
"2 : .     . # 2 * .   . 8 8 * * # + O - # * * O . < . l x o   & ",
"O X %   % <   .         #   X % .   . .       . .       .   O . ",
"  ! L g ` g C ' ^ m U   % . s E F S L L .     ( E W S N L |     ",
"X.H N J L _ N y t q M &   Q b H a N t L #   F m n m b y 8 N t # ",
"! m Z N t b u L m 7 u * O ( b L a 8 J J : < R N 8 y a b b 7 l   ",
"K L Z V t 5 r F = n 9 = < E C b y x N 8 O < Z 8 u 8 a 6 y n 2   ",
"L H _ x t b u 7 y 8 a # . F a w 8 G l 5 O   U u y 8 6 a 7 m =   ",
"F M b m t 6 t N 2 9 a o   I a b a x a N + X m V u = u 2 u a +   ",
". l l ; 5 O * o # O o .   . : t X & o O 4 < $ ; : & + 4 @ O     ",
"    <   < O     %           . . .   . X   1 O X . .         .   ",
"S ^ H ' _ L     . g I C ( H ' _ T Y       < X.] L ( .     ( E H ",
"6 F m D z m 2   . C r H n b m F N n . . W _ m 6 a b o   Z b s r ",
"N q q 8 N q 5   I N V t m 2 M x b r z   E a 5 w q a @ . Q 6 b N ",
"2 N 6 a 2 b #   j ( l x 2 6 y m : M t   g w m 7 > > O   C n 7 b ",
"b 8 t b 2 9 # % _ V D q b 8 N q m b ,   Z _  .M M 6 #   g y N 7 ",
"8 e w 2 7 r #   J t N V 5 6 8 V w 6 O < Q L ( x m M o   ( V 5 7 ",
"& O # * X O   .   6 8 * . & * . . .     . 8 M ; + $ X   . + O * "
};
