/* XPM */
static char * door_xpm[] = {
"32 32 12 1",
" 	c None",
".	c #F7E26B",
"+	c #000000",
"@	c #EB8931",
"#	c #FFFFFF",
"$	c #9D9D9D",
"%	c #E0CD61",
"&	c #F5D463",
"*	c #998C40",
"=	c #A29444",
"-	c #766C2F",
";	c #AC9D48",
"           ....++....           ",
"        ..+@@@@++@@@@+..        ",
"      ..@@+@@@@++@@@@+@@.+      ",
"    .+@@@@+@@@@++@@@@+@@@@+.    ",
"   .@+@@@@+@@@@++@@@@+@@@@+@.   ",
"  #+$$$$$$$$$$$++$$$$$$$$$$$+#  ",
"++$$$$$$$$$$$$$++$$$$$$$$$$$$$++",
"$++++++++++++++++++++++++++++++$",
"+@@@@+@@@@+@@@@++@@@@+@@@@+@@@@+",
"+@@@@+@@@@+@@@@++@@@@+@@@@+@@@@+",
"+@@@@+@@@@+@@@@++@@@@+@@@@+@@@@+",
"+@@@@+@@@@+@@@@++@@@@+@@@@+@@@@+",
"+@@@@+@@@@+@@@@++@@@@+@@@@+@@@@+",
"++++++++++++++++++++++++++++++++",
"+@@@@+@@@@+@@@@++@@@@+@@@@+@@@@+",
"+@@@@+@@@@+@@@@++@@@@+@@@@+@@@@+",
"$$#+$$$$$$$$$$$++$$$$$$$$$$$+#$$",
"++$$$$$$$$$$$$$++$$$$$$$$$$$$$++",
"$$$+++++++++$$++++$$+++++++++$$$",
"+++@@+@@@@+$++$++$++$+@@@@+@@+++",
"+@@@@+@@@@+$++$++$++$+@@@@+@@@@+",
"+@@@@+@@@@++##++++##++@@@@+@@@@+",
"$$#+$$$$$$$$++$++$++$$$$$$$$+#$$",
"++$$$$$$$$$$$$$++$$$$$$$$$$$$$++",
"$$$++++++++++++++++++++++++++$$$",
"+++@@+@@@@+@.@.#.@.@.+@@@@+@@+++",
"+@@@@+@@@@+.@.@.#.@.@+@@@@+@@@@+",
"+@@@@+@@@@+@.@.#.@.@.+@@@@+@@@@+",
"+@@@@+@@@@+.@.@.#.@.@+@@@@+@@@@+",
"+@@@@+@@@@+@.@.#.@.@.+@@@@+@@@@+",
"+@@@@+@@@@+.@.@.#.@.@+@@@@+@@@@+",
"%&...*....=.&&.==....*.&..-.&&.;"};
