/* XPM */
static char * ex_xpm[] = {
"32 32 609 2",
"  	c None",
". 	c #9B40C0",
"+ 	c #9C53AC",
"@ 	c #9B52AC",
"# 	c #9A4FAC",
"$ 	c #BE59C5",
"% 	c #B05BB7",
"& 	c #A55DAD",
"* 	c #A35DAB",
"= 	c #9F57AC",
"- 	c #9D55AC",
"; 	c #9D54AC",
"> 	c #9A50AC",
", 	c #9B52AB",
"' 	c #9A52AB",
") 	c #9958A7",
"! 	c #995BA7",
"~ 	c #A45BAF",
"{ 	c #B35DBA",
"] 	c #B053BD",
"^ 	c #9A4EAD",
"/ 	c #A850BC",
"( 	c #D76ADA",
"_ 	c #D872D0",
": 	c #BF73B4",
"< 	c #AF75A2",
"[ 	c #B278A4",
"} 	c #B174A9",
"| 	c #B076AA",
"1 	c #AC75A6",
"2 	c #A367A6",
"3 	c #A770A2",
"4 	c #A26E9E",
"5 	c #AB7DA0",
"6 	c #A97FA4",
"7 	c #B47FAF",
"8 	c #D380C9",
"9 	c #EB81DF",
"0 	c #A953B7",
"a 	c #9C4EAE",
"b 	c #A04DB4",
"c 	c #C95DD8",
"d 	c #F187E1",
"e 	c #C87DB8",
"f 	c #AD7B9C",
"g 	c #AF7F9A",
"h 	c #B683A1",
"i 	c #BB86A5",
"j 	c #BC87A6",
"k 	c #BA86A4",
"l 	c #B484A0",
"m 	c #AE7F9E",
"n 	c #B78AA5",
"o 	c #B68CA8",
"p 	c #B288AB",
"q 	c #C78CBB",
"r 	c #EF95D9",
"s 	c #DE74DA",
"t 	c #A54FB5",
"u 	c #BB52C8",
"v 	c #E371E0",
"w 	c #EE8DDA",
"x 	c #C385B0",
"y 	c #B3879D",
"z 	c #C08FA6",
"A 	c #CB94B0",
"B 	c #CB95AC",
"C 	c #CA95AB",
"D 	c #C996AA",
"E 	c #C391A7",
"F 	c #B788A4",
"G 	c #B587A3",
"H 	c #B189A5",
"I 	c #AF89A7",
"J 	c #AE88A6",
"K 	c #B586AD",
"L 	c #E692D3",
"M 	c #EE86E0",
"N 	c #B65BBF",
"O 	c #9D4EAF",
"P 	c #CB62D1",
"Q 	c #EF83E0",
"R 	c #DB86CA",
"S 	c #CB8EB6",
"T 	c #CA96B0",
"U 	c #CD98B0",
"V 	c #CC96AD",
"W 	c #CB96AB",
"X 	c #C797A9",
"Y 	c #C097A2",
"Z 	c #BE96A0",
"` 	c #C293A9",
" .	c #BD93A7",
"..	c #C497AC",
"+.	c #C99AB1",
"@.	c #C897B0",
"#.	c #C891B3",
"$.	c #D689C4",
"%.	c #EC90D8",
"&.	c #E07FD7",
"*.	c #A150B1",
"=.	c #9B4FAD",
"-.	c #C964CD",
";.	c #EC86DC",
">.	c #BD82B5",
",.	c #B78BAE",
"'.	c #C596B1",
").	c #CF9BB2",
"!.	c #CB9AAD",
"~.	c #C39AA3",
"{.	c #C59EAA",
"].	c #C6A3AB",
"^.	c #C9A4AD",
"/.	c #CFA1B7",
"(.	c #CFA4B3",
"_.	c #D2A6B3",
":.	c #D3A3B5",
"<.	c #CD99B2",
"[.	c #C28EAD",
"}.	c #BF84B2",
"|.	c #E393CF",
"1.	c #E387D6",
"2.	c #A853B6",
"3.	c #A051B0",
"4.	c #D66FD3",
"5.	c #EA8BD8",
"6.	c #B385AD",
"7.	c #AE8CA9",
"8.	c #BB95AB",
"9.	c #C79EAE",
"0.	c #CBA3B1",
"a.	c #C8A1A8",
"b.	c #CCA9AF",
"c.	c #CDACB1",
"d.	c #CDAAB1",
"e.	c #D1A9B9",
"f.	c #D6ABB7",
"g.	c #D6AAB5",
"h.	c #D1A4B0",
"i.	c #C79AA8",
"j.	c #B98CA2",
"k.	c #B486A2",
"l.	c #DF94C9",
"m.	c #E98AD9",
"n.	c #B25ABB",
"o.	c #A855B4",
"p.	c #DF79D5",
"q.	c #E992D4",
"r.	c #B98EAF",
"s.	c #B493A9",
"t.	c #B997A7",
"u.	c #C09FAA",
"v.	c #CAA9B2",
"w.	c #D2AAB3",
"x.	c #D3B2B5",
"y.	c #D1B3B4",
"z.	c #CFAFB3",
"A.	c #CFAEB5",
"B.	c #D4ADB5",
"C.	c #D3A8B1",
"D.	c #CBA4A7",
"E.	c #C09C9C",
"F.	c #B68F9A",
"G.	c #B48B9A",
"H.	c #DD93C4",
"I.	c #F491E0",
"J.	c #C868C7",
"K.	c #9C50AD",
"L.	c #9D50AE",
"M.	c #C364C5",
"N.	c #ED88DC",
"O.	c #DF94CB",
"P.	c #B993AE",
"Q.	c #B797A5",
"R.	c #BF9AA9",
"S.	c #C39FAC",
"T.	c #C9AAB0",
"U.	c #DABCBB",
"V.	c #DAC1BE",
"W.	c #DCC3C0",
"X.	c #DEC3C1",
"Y.	c #DCBFBD",
"Z.	c #D9BDBA",
"`.	c #D1B1AF",
" +	c #C9A5A3",
".+	c #C19F9D",
"++	c #B89699",
"@+	c #B58E9A",
"#+	c #D592BC",
"$+	c #ED91D8",
"%+	c #CD6FC8",
"&+	c #C166C2",
"*+	c #EC8DD7",
"=+	c #D08EBF",
"-+	c #B78FAA",
";+	c #BA98A9",
">+	c #C0A0AB",
",+	c #C5A4AC",
"'+	c #D3B8B6",
")+	c #D9C0BB",
"!+	c #DFC8C0",
"~+	c #CDA8AA",
"{+	c #C7A4A2",
"]+	c #BD9B9B",
"^+	c #B89599",
"/+	c #CA94B0",
"(+	c #E594CC",
"_+	c #D178C8",
":+	c #9B50AD",
"<+	c #9C50AE",
"[+	c #D371CD",
"}+	c #EC8ED6",
"|+	c #CD8EBC",
"1+	c #BB92A8",
"2+	c #C299AB",
"3+	c #C7A4AF",
"4+	c #CAABB1",
"5+	c #FEFBDE",
"6+	c #FEFADD",
"7+	c #FEFADE",
"8+	c #E6D1C6",
"9+	c #D1ADAF",
"0+	c #CAA6A4",
"a+	c #C3A0A1",
"b+	c #BA989A",
"c+	c #C794AC",
"d+	c #E395C9",
"e+	c #C671C2",
"f+	c #9B4FAC",
"g+	c #B662BB",
"h+	c #DF8ACE",
"i+	c #C28DB4",
"j+	c #BB94AA",
"k+	c #C59DAE",
"l+	c #CCA7B2",
"m+	c #CFAFB4",
"n+	c #DBC5BE",
"o+	c #F8F2D9",
"p+	c #FDFADF",
"q+	c #FDF9DF",
"r+	c #FDF9DE",
"s+	c #FDF9DD",
"t+	c #FCF8DC",
"u+	c #E6D3C8",
"v+	c #D2B2B3",
"w+	c #CBAAAC",
"x+	c #C7A3AA",
"y+	c #BF9BA3",
"z+	c #C393AB",
"A+	c #DD92C4",
"B+	c #E88AD5",
"C+	c #A255B1",
"D+	c #9E51AF",
"E+	c #D277CC",
"F+	c #DD91C9",
"G+	c #AF8CA8",
"H+	c #B594AB",
"I+	c #C09FB1",
"J+	c #CAA9B3",
"K+	c #D0B1B5",
"L+	c #DCC7C0",
"M+	c #FDFAE0",
"N+	c #FDFAE1",
"O+	c #E4D4C8",
"P+	c #CFB5B7",
"Q+	c #CAAFB4",
"R+	c #C8A6B2",
"S+	c #C59EAE",
"T+	c #BE93A8",
"U+	c #D492BD",
"V+	c #E88ED5",
"W+	c #E87DDC",
"X+	c #DF91CB",
"Y+	c #B28EA8",
"Z+	c #BC9EAF",
"`+	c #C3A8B4",
" @	c #CBB0B7",
".@	c #DBC6C1",
"+@	c #FDFADE",
"@@	c #CAB0B5",
"#@	c #C7ABB5",
"$@	c #C8A0B0",
"%@	c #C096A8",
"&@	c #AB86A4",
"*@	c #F19FDB",
"=@	c #E785D9",
"-@	c #B38EA8",
";@	c #BA9BB1",
">@	c #C1A6B4",
",@	c #C9AFB7",
"'@	c #D8C4C2",
")@	c #F8F3DC",
"!@	c #CAAFB5",
"~@	c #C5A6B4",
"{@	c #C59EAF",
"]@	c #C298A8",
"^@	c #9C4FAD",
"/@	c #E888DA",
"(@	c #BA9AAE",
"_@	c #C1A3B2",
":@	c #C6A9B6",
"<@	c #D4C0C0",
"[@	c #F7F2DB",
"}@	c #E2D2C6",
"|@	c #CBB1B4",
"1@	c #C7AAB1",
"2@	c #C4A0B0",
"3@	c #C39CAE",
"4@	c #9D50AD",
"5@	c #9F50AF",
"6@	c #E987DB",
"7@	c #B08CA7",
"8@	c #B491A9",
"9@	c #BB97AB",
"0@	c #C19FB0",
"a@	c #C4A4B3",
"b@	c #D1BBBC",
"c@	c #F7F1D8",
"d@	c #DECDC3",
"e@	c #C5A9AF",
"f@	c #C2A5AC",
"g@	c #C39CAD",
"h@	c #C39BAD",
"i@	c #C398A9",
"j@	c #9E50AE",
"k@	c #A450B3",
"l@	c #E882DC",
"m@	c #B28CA6",
"n@	c #B892AA",
"o@	c #C09DB0",
"p@	c #C4A2B3",
"q@	c #D2B8BA",
"r@	c #DAC9C0",
"s@	c #BEA0AA",
"t@	c #BE9FAA",
"u@	c #C19AAC",
"v@	c #C29AAD",
"w@	c #C295AA",
"x@	c #A44DB6",
"y@	c #A883A2",
"z@	c #B18CA6",
"A@	c #B492AA",
"B@	c #BE9CB0",
"C@	c #C4A4B4",
"D@	c #D1BBBD",
"E@	c #EACDCB",
"F@	c #D7C4BF",
"G@	c #BC9AAA",
"H@	c #BD9AAB",
"I@	c #BC95AB",
"J@	c #BC94AB",
"K@	c #BB8DAA",
"L@	c #A050B0",
"M@	c #9D4FAE",
"N@	c #9A4FAD",
"O@	c #9F4DB3",
"P@	c #E778DC",
"Q@	c #A37EA7",
"R@	c #AD89A8",
"S@	c #B08FAF",
"T@	c #B899B3",
"U@	c #C09EB4",
"V@	c #CDABBB",
"W@	c #E9CECD",
"X@	c #EED4D0",
"Y@	c #ECD0CE",
"Z@	c #E6CFC6",
"`@	c #E6CAC7",
" #	c #D0ACB5",
".#	c #BE96A7",
"+#	c #BA94A8",
"@#	c #B38EAB",
"##	c #B28DAB",
"$#	c #AE88A7",
"%#	c #9E4FAF",
"&#	c #9C4FAE",
"*#	c #9B4EAE",
"=#	c #E474DE",
"-#	c #A481A9",
";#	c #AB88B2",
">#	c #B190B4",
",#	c #BD99B6",
"'#	c #CFA2BB",
")#	c #DDAEC2",
"!#	c #DDAFC2",
"~#	c #DDACC3",
"{#	c #DDACC1",
"]#	c #DAAFBB",
"^#	c #DAABBC",
"/#	c #D4A5B6",
"(#	c #C699AB",
"_#	c #B58CA5",
":#	c #AD8AAA",
"<#	c #A987A7",
"[#	c #A380A0",
"}#	c #E26EE1",
"|#	c #9D75A9",
"1#	c #A77FAE",
"2#	c #B48CB5",
"3#	c #C69CBD",
"4#	c #D6A7C1",
"5#	c #DAA5C0",
"6#	c #D6A1BE",
"7#	c #D6A1C0",
"8#	c #DBAABD",
"9#	c #DAAABD",
"0#	c #CF9FB6",
"a#	c #BD8DAC",
"b#	c #AF87A8",
"c#	c #A780A0",
"d#	c #9C7596",
"e#	c #E265E4",
"f#	c #8D629A",
"g#	c #9A69A6",
"h#	c #AA77AA",
"i#	c #C794BB",
"j#	c #D9A6C8",
"k#	c #DBAAC9",
"l#	c #DCAAC9",
"m#	c #DBA6C5",
"n#	c #D6A0BF",
"o#	c #D39EBB",
"p#	c #D8A1BB",
"q#	c #D39EBA",
"r#	c #D39EBD",
"s#	c #CF99BA",
"t#	c #B582A5",
"u#	c #A87899",
"v#	c #996E8F",
"w#	c #E25FE6",
"x#	c #D167CA",
"y#	c #845890",
"z#	c #94629B",
"A#	c #BC80B2",
"B#	c #D299C2",
"C#	c #DAA5C8",
"D#	c #DAA1C4",
"E#	c #D195BD",
"F#	c #C58BB5",
"G#	c #C48CB0",
"H#	c #C187B0",
"I#	c #BF87B1",
"J#	c #BB87AE",
"K#	c #B27EA4",
"L#	c #9E6E99",
"M#	c #8C618D",
"N#	c #BB66B5",
"O#	c #EC6BE7",
"P#	c #A23BCB",
"Q#	c #E058E8",
"R#	c #CF5ECA",
"S#	c #8B5594",
"T#	c #B16EAB",
"U#	c #CD82BF",
"V#	c #D692C5",
"W#	c #D69CC5",
"X#	c #D79EC6",
"Y#	c #D69AC5",
"Z#	c #D695C3",
"`#	c #D18EBE",
" $	c #C986BB",
".$	c #C387B9",
"+$	c #C28FB4",
"@$	c #C48AB5",
"#$	c #C485B6",
"$$	c #C186B4",
"%$	c #BC82AF",
"&$	c #B47CAB",
"*$	c #966798",
"=$	c #B85DB6",
"-$	c #EB61E8",
";$	c #9D49B7",
">$	c #DA51E6",
",$	c #D55CD2",
"'$	c #A05DA7",
")$	c #BD72B9",
"!$	c #CC7BC1",
"~$	c #CF85C4",
"{$	c #CF8FC4",
"]$	c #D093C4",
"^$	c #CF8EC3",
"/$	c #CF8BC3",
"($	c #CF89C1",
"_$	c #CF88C1",
":$	c #CC8BC2",
"<$	c #C896BD",
"[$	c #CA93BE",
"}$	c #CB8BC0",
"|$	c #C987BF",
"1$	c #C586BC",
"2$	c #C484BC",
"3$	c #AF74AD",
"4$	c #C663C3",
"5$	c #C64DD5",
"6$	c #DD60DE",
"7$	c #AD65BA",
"8$	c #AF67B8",
"9$	c #BA6FB7",
"0$	c #BD75BA",
"a$	c #BD7ABE",
"b$	c #C07FBE",
"c$	c #C080BF",
"d$	c #C281BE",
"e$	c #C480BC",
"f$	c #C881BC",
"g$	c #CA87BD",
"h$	c #C18BBD",
"i$	c #BF8EBD",
"j$	c #C088C0",
"k$	c #C280C3",
"l$	c #C482C1",
"m$	c #C47FC1",
"n$	c #C17BBC",
"o$	c #D86DD2",
"p$	c #9F46BD",
"q$	c #C24BD5",
"r$	c #D859E2",
"s$	c #9A5CBC",
"t$	c #9F61B3",
"u$	c #A965A9",
"v$	c #A15AA3",
"w$	c #9B55A6",
"x$	c #9F60AF",
"y$	c #A265B3",
"z$	c #AA68B0",
"A$	c #AF69AD",
"B$	c #AF69AC",
"C$	c #AE6AAD",
"D$	c #A26DAC",
"E$	c #A075AC",
"F$	c #A97BB5",
"G$	c #B57BBE",
"H$	c #BA77BC",
"I$	c #C279BB",
"J$	c #BD77BA",
"K$	c #D46BD3",
"L$	c #DA4EE3",
"M$	c #9D49B9",
"N$	c #9B4DAF",
"O$	c #CD42E2",
"P$	c #D045DC",
"Q$	c #8448AA",
"R$	c #975AAB",
"S$	c #925A9C",
"T$	c #904F99",
"U$	c #924BA2",
"V$	c #9554AC",
"W$	c #9859B1",
"X$	c #9C5AB0",
"Y$	c #9D5BAC",
"Z$	c #9C5AA9",
"`$	c #9958AA",
" %	c #905BA8",
".%	c #8D60A8",
"+%	c #9162AB",
"@%	c #9E68B1",
"#%	c #B573BA",
"$%	c #BB75BB",
"%%	c #B875B9",
"&%	c #D269D4",
"*%	c #E44AEF",
"=%	c #9D48BB",
"-%	c #9B4AB6",
";%	c #D13DE6",
">%	c #E73EEC",
",%	c #CB3FD6",
"'%	c #D24ED8",
")%	c #CE50D3",
"!%	c #D056D1",
"~%	c #D25BD2",
"{%	c #D35ED6",
"]%	c #D45FD8",
"^%	c #D35CD8",
"/%	c #D358D7",
"(%	c #D255D6",
"_%	c #D154D6",
":%	c #CF56D6",
"<%	c #CF5AD7",
"[%	c #CF5AD8",
"}%	c #D35BDA",
"|%	c #DE66DF",
"1%	c #DF6ADF",
"2%	c #DE6DDC",
"3%	c #EA64E7",
"4%	c #DA49E7",
"5%	c #9C49B8",
"6%	c #9B44BE",
"7%	c #C430EA",
"8%	c #DE36F5",
"9%	c #DD34F4",
"0%	c #DE36F3",
"a%	c #E03CF5",
"b%	c #E24CF2",
"c%	c #E355F0",
"d%	c #E354F0",
"e%	c #E354EF",
"f%	c #E250EF",
"g%	c #E04AEE",
"h%	c #DF47EE",
"i%	c #DE47EF",
"j%	c #DF4DF1",
"k%	c #E04DF3",
"l%	c #E148F4",
"m%	c #E249F4",
"n%	c #E24DF5",
"o%	c #E252F3",
"p%	c #E24DF3",
"q%	c #CC3EE7",
"r%	c #9C45BE",
"              . . . . . . . . + @ . . . . . . . .               ",
"          # . . . $ % & * = - ; > , ' ) ! ~ { ] . .             ",
"          . ^ / ( _ : < [ } | 1 2 3 4 5 6 7 8 9 0 a .           ",
"        # . b c d e f g h i j k l m m n o p q r s t . .         ",
"        . . u v w x y z A B C D E F G H I J K L M N # .         ",
"        . O P Q R S T U V W X Y Z `  ...+.@.#.$.%.&.*..         ",
"      . . =.-.;.>.,.'.).!.~.{.].^./.(._.:.<.[.}.|.1.2..         ",
"      . . 3.4.5.6.7.8.9.0.a.b.c.d.e.f.g.h.i.j.k.l.m.n.=..       ",
"      . . o.p.q.r.s.t.u.v.w.x.y.z.A.B.C.D.E.F.G.H.I.J.K..       ",
"      . L.M.N.O.P.Q.R.S.T.U.V.W.X.Y.Z.`. +.+++@+#+$+%+K..       ",
"    # . # &+*+=+-+;+>+,+'+)+)+)+)+)+)+!+~+{+]+^+/+(+_+:+.       ",
"      . <+[+}+|+1+2+3+4+)+)+5+6+6+7+)+8+9+0+a+b+c+d+e+f+.       ",
"    . . f+g+h+i+j+k+l+m+n+o+p+q+r+s+t+u+v+w+x+y+z+A+B+C+#       ",
"    . . D+E+F+G+H+I+J+K+L+o+M+N+M+s+t+O+P+Q+R+S+T+U+V+W+f+#     ",
"    . # W+W+X+Y+H+Z+`+ @.@o++@p+M+s+t+O+P+@@#@$@%@&@*@W+K..     ",
"  . . =.W+=@&@-@H+;@>@,@'@)@7+s+r+s+t+O+P+!@~@{@]@&@&@W+^@. .   ",
"  . f+=.W+/@&@-@H+(@_@:@<@[@7+s+s+s+t+}@|@1@2@3@]@&@&@W+^@4@.   ",
"  . =.5@W+6@&@7@8@9@0@a@b@c@6+s+s+s+t+d@e@f@g@h@i@&@&@W+W+j@.   ",
"  . . k@W+l@&@&@m@n@o@p@q@c@7+s+s+s+t+r@s@t@u@v@w@&@&@W+W+j@.   ",
"  . . x@W+W+&@y@z@A@B@C@D@E@E@E@E@E@E@F@G@H@I@J@K@&@&@W+L@M@.   ",
"  . N@O@W+P@&@Q@R@S@T@U@V@W@X@Y@E@Z@`@ #.#+#@###$#&@&@W+%#&#.   ",
"  . *#=.W+=#&@&@-#;#>#,#'#)#!#~#{#]#^#/#(#_#:#<#[#&@&@W+=.. .   ",
"  . . # W+}#&@&@|#1#2#3#4#5#6#7#5#8#8#9#0#a#b#c#d#&@&@W+O .     ",
"    . N@W+e#&@f#g#h#i#j#k#l#m#n#o#p#p#q#r#s#t#u#v#&@&@W+*#.     ",
"    . # W+w#x#y#z#A#B#C#C#C#D#E#F#G#G#H#I#J#K#L#M#N#O#W+# .     ",
"    . . P#Q#R#S#T#U#V#W#X#Y#Z#`# $.$+$@$#$$$%$&$*$=$-$W+. .     ",
"    # . ;$>$,$'$)$!$~${$]$^$/$($_$:$<$[$}$|$1$2$3$4$W+W+. #     ",
"      . *#5$6$7$8$9$0$a$b$c$d$e$f$g$h$i$j$k$l$m$n$o$W+p$.       ",
"      . ^ q$r$s$t$u$v$w$x$y$z$A$B$C$D$E$F$G$H$I$J$K$L$M$.       ",
"      . N$O$P$Q$R$S$T$U$V$W$X$Y$Z$`$ %.%+%@%#%$%%%&%*%=%.       ",
"      . -%;%>%,%'%)%!%~%{%]%^%/%(%_%:%<%[%}%|%1%2%3%4%5%.       ",
"      . 6%7%8%9%0%a%b%c%d%e%f%g%h%h%i%j%k%l%m%n%o%p%q%r%.       "};
