/* XPM */
static char *result[] = {
/* columns rows colors chars-per-pixel */
"32 32 201 2 ",
"   c #733F8A",
".  c #6F329E",
"X  c #7C458E",
"o  c #7E558B",
"O  c #7A5C89",
"+  c #795F95",
"@  c #875A8B",
"#  c #92479D",
"$  c #835591",
"%  c #8B5A93",
"&  c #835A95",
"*  c #946A8E",
"=  c #9C728E",
"-  c #886095",
";  c #916395",
":  c #92669B",
">  c #99699F",
",  c #95719B",
"<  c #9D7298",
"1  c #A27D9C",
"2  c #AA7C9B",
"3  c #A87796",
"4  c #8958A8",
"5  c #9452AB",
"6  c #9A5AAB",
"7  c #9857A8",
"8  c #9857B2",
"9  c #9B68A9",
"0  c #9D78AA",
"q  c #9C61B3",
"w  c #AC66AA",
"e  c #A06CAD",
"r  c #AC65A5",
"t  c #A67FA4",
"y  c #AA78A7",
"u  c #B37EA3",
"i  c #B475AE",
"p  c #BB7CAD",
"a  c #BC76AF",
"s  c #AB66B7",
"d  c #B167B9",
"f  c #B874BB",
"g  c #C45CBF",
"h  c #C07FAF",
"j  c #C162BE",
"k  c #C579BA",
"l  c #C174BA",
"z  c #9815DB",
"x  c #9F21DB",
"c  c #B83DCD",
"v  c #A524DD",
"b  c #A72BD8",
"n  c #B22CDB",
"m  c #AF31D9",
"M  c #AC3BD4",
"N  c #B63DD6",
"B  c #8C02E5",
"V  c #9402E4",
"C  c #9C04E6",
"Z  c #9D02EA",
"A  c #9609E5",
"S  c #9211E1",
"D  c #A00AE6",
"F  c #A003EA",
"G  c #A508E8",
"H  c #A211E1",
"J  c #AB18E2",
"K  c #B20AE7",
"L  c #F73FFB",
"P  c #975BC0",
"I  c #AB40CC",
"U  c #BC4FC3",
"Y  c #B746C9",
"T  c #BC4FCF",
"R  c #B548C9",
"E  c #BB53C2",
"W  c #BD55CD",
"Q  c #BE5DCB",
"!  c #BD5AC1",
"~  c #BC48D2",
"^  c #BC64C6",
"/  c #B57EC0",
"(  c #C14BC7",
")  c #C25ACB",
"_  c #C959C7",
"`  c #C343D4",
"'  c #C350D0",
"]  c #D75DDF",
"[  c #C668C6",
"{  c #D061CA",
"}  c #C47FC4",
"|  c #E56EDE",
" . c #EB7BDF",
".. c #CC48E4",
"X. c #D951E2",
"o. c #F942FB",
"O. c #F84BFB",
"+. c #F742F9",
"@. c #F754F5",
"#. c #F954F7",
"$. c #F85CF4",
"%. c #F95FF9",
"&. c #FA57FA",
"*. c #E16CE0",
"=. c #F965EE",
"-. c #F96FED",
";. c #F974EB",
":. c #F97EE7",
">. c #F96DF4",
",. c #F965F4",
"<. c #F973F3",
"1. c #A3809F",
"2. c #B48A9A",
"3. c #BD9B9B",
"4. c #B79698",
"5. c #A885A4",
"6. c #AD8AAB",
"7. c #AB88A7",
"8. c #B485A3",
"9. c #B28CA6",
"0. c #BB8BA7",
"q. c #B281AB",
"w. c #BD85AC",
"e. c #B189AA",
"r. c #BB94A5",
"t. c #B998A3",
"y. c #B494AB",
"u. c #BB93AB",
"i. c #BD9BAB",
"p. c #AF8EB5",
"a. c #AA85B2",
"s. c #BC84B0",
"d. c #BB9CB3",
"f. c #BCA1A9",
"g. c #BDA0B0",
"h. c #C3A09D",
"j. c #C594AB",
"k. c #CC96AC",
"l. c #C39BAD",
"z. c #CA9CAE",
"x. c #C497A7",
"c. c #CB84BF",
"v. c #CD8BBD",
"b. c #C386B6",
"n. c #D289BF",
"m. c #CC94B3",
"M. c #CD9CB2",
"N. c #C69AB7",
"B. c #D19BB4",
"V. c #D593BC",
"C. c #D19EBB",
"Z. c #CCA8A5",
"A. c #C3A5AC",
"S. c #C5AAAE",
"D. c #CCABAE",
"F. c #C6A3A6",
"G. c #C4A3B4",
"H. c #C8A4B1",
"J. c #CBACB4",
"K. c #C6ADB6",
"L. c #D2A5B2",
"P. c #D1ADB3",
"I. c #D4A6BE",
"U. c #DBA3BD",
"Y. c #DBACBD",
"T. c #D7ABB6",
"R. c #CBB1B5",
"E. c #CEB4BB",
"W. c #D3B5B5",
"Q. c #D4BABA",
"!. c #D9B7B9",
"~. c #C786C2",
"^. c #D38DC2",
"/. c #D782C7",
"(. c #C693C1",
"). c #D392C3",
"_. c #D59BC5",
"`. c #DA9DC1",
"'. c #E28FCC",
"]. c #EE82DD",
"[. c #EC96D5",
"{. c #F896DE",
"}. c #FA9FDF",
"|. c #CEA2C0",
" X c #DCA5C4",
".X c #DCABCA",
"XX c #D9A4C8",
"oX c #DBBDC0",
"OX c #E5BDC9",
"+X c #E2B1C4",
"@X c #FAA9DE",
"#X c #FA87E5",
"$X c #FA8DE2",
"%X c #F984E8",
"&X c #FA88E8",
"*X c #FA94E2",
"=X c #FA9BE2",
"-X c #FBAAE1",
";X c #FDF9DD",
":X c #FDFAE1",
">X c None",
/* pixels */
">X>X>X>X>X>X>X>X>X>X>X>X>X>X>XB >X>X>X>X>X>X>X>X>X>X>X>X>X>X>X>X",
">X>X>X>X>X>X>X>X>X>X>X>X>X>XC +.Z >X>X>X>X>X>X>X>X>X>X>X>X>X>X>X",
">X>X>X>X>X>X>X>X>X>X>X>X>XD ,.X &.K >X>X>X>X>X>X>X>X>X>X>X>X>X>X",
">X>X>X>X>X>X>X>X>X>X>X>XH <.$ r w >.J >X>X>X>X>X>X>X>X>X>X>X>X>X",
">X>X>X>X>X>X>X>X>X>X>XJ =.9 O o & @ <.v >X>X>X>X>X>X>X>X>X>X>X>X",
">X>X>X>X>X>X>X>X>X>Xb >.@ + + & % % 9 ;.n >X>X>X>X>X>X>X>X>X>X>X",
">X>X>X>X>X>X>X>X>Xb =.j ; i i i : : * [ ;.m >X>X>X>X>X>X>X>X>X>X",
">X>X>X>X>X>X>X>X>X..;.a h h s.u u = , , &XX.c >X>X>X>X>X>X>X>X>X",
">X>X>X>X>X>X>X>XM &Xa 3 3 u u 2 2 2 j.e.).*X` >X>X>X>X>X>X>X>X>X",
">X>X>X>X>X>X>XY ] *X2 2.m.k.k.k.8.8.5.5.t =X*.U >X>X>X>X>X>X>X>X",
">X>X>X>X>X>X>X~ &X/.m.B.k.k.x.4.j.r.M.M.m./.=X' >X>X>X>X>X>X>X>X",
">X>X>X>X>X>X>XW &Xt 6.M.M.3.H.D.I.T.T.B.0.q.}.) >X>X>X>X>X>X>X>X",
">X>X>X>X>X>X! | *Xe.y.t.J.L.W.D.J.T.L.h.2.2.=X ._ >X>X>X>X>X>X>X",
">X>X>X>X>X>X!  .[.y.t.l.A.!.Q.oX!.W.Z.h.4.2.[.].j >X>X>X>X>X>X>X",
">X>X>X>X>X>X) $X^.9.i.A.D.;X;X;X;X;XP.Z.3.4.V.{.^ >X>X>X>X>X>X>X",
">X>X>X>X>X>XQ $X^.r.z.J.W.;X;X;X;X;X!.Z.F.4.V.{.^ >X>X>X>X>X>X>X",
">X>X>X>X>X>XQ {.7.y.G.P.Q.;X:X:X;X;XQ.R.H.l.0.{.^ >X>X>X>X>X>X>X",
">X>X>X>X>X>X) *X9.y.g.K.Q.;X;X:X;X;XQ.R.K.z.r.-X[ >X>X>X>X>X>X>X",
">X>X>X>X>XE Q {.9.y.d.K.E.:X;X;X;X;XQ.R.G.l.x.@X{ g >X>X>X>X>X>X",
">X>X>X>X>XE ) =X9.y.i.G.K.;X;X;X;X;XR.S.l.l.x.@X{ _ >X>X>X>X>X>X",
">X>X>X>X>XE W *X5.9.u.G.H.;X;X;X;X;XA.f.l.l.j.-X_ _ >X>X>X>X>X>X",
">X>X>X>X>XY T $X1.9.y.G.K.;X;X;X;X;Xi.i.u.u.w.=X) E >X>X>X>X>X>X",
">X>X>X>X>XI R #X0 7.p.d.N.OXOX+X!.Y.x.r.6.6.5.-X' Y >X>X>X>X>X>X",
">X>X>X>X>X>XI %X, 0 a.p.I.U.C. XY.Y.Y.8.6.1.< =X~ c >X>X>X>X>X>X",
">X>X>X>X>X>XM ;.- 9 y XX.X.X XC.U.U.C. Xu 3 * %XN >X>X>X>X>X>X>X",
">X>X>X>X>X>Xb -.o % v.XXXXXX`.b.w.w.p q.u ; @ -.m >X>X>X>X>X>X>X",
">X>X>X>X>X>Xx =.X k /.)._.).^.n.~.N.v.v.b.b.$ =.v >X>X>X>X>X>X>X",
">X>X>X>X>X>XJ $.d d l } ~.~.~.c.^.(.(.} ~.} k #.z >X>X>X>X>X>X>X",
">X>X>X>X>X>XG &.P q r # 6 q w w w 9 0 / f k f #.S >X>X>X>X>X>X>X",
">X>X>X>X>X>XF o.. 6 $ # 5 8 8 7 5 4 4 4 f f f O.A >X>X>X>X>X>X>X",
">X>X>X>X>X>XC o.L +.O.,.,.,.$.@.@.@.%.&.&.%.,.O.B >X>X>X>X>X>X>X",
">X>X>X>X>X>XV B B V C D G H H z z S S A D F F Z Z >X>X>X>X>X>X>X"
};
