/* XPM */
static char * floor_xpm[] = {
"32 32 45 1",
" 	c #292929",
".	c #2A2A2A",
"+	c #272727",
"@	c #232323",
"#	c #1F1F1F",
"$	c #1C1C1C",
"%	c #202020",
"&	c #262626",
"*	c #282828",
"=	c #242424",
"-	c #252525",
";	c #2F2F2F",
">	c #2E2E2E",
",	c #212121",
"'	c #1E1E1E",
")	c #181818",
"!	c #191919",
"~	c #2D2D2D",
"{	c #2C2C2C",
"]	c #363636",
"^	c #383838",
"/	c #353535",
"(	c #343434",
"_	c #373737",
":	c #393939",
"<	c #3B3B3B",
"[	c #3F3F3F",
"}	c #404040",
"|	c #303030",
"1	c #3D3D3D",
"2	c #3E3E3E",
"3	c #333333",
"4	c #222222",
"5	c #313131",
"6	c #3C3C3C",
"7	c #414141",
"8	c #3A3A3A",
"9	c #424242",
"0	c #323232",
"a	c #2B2B2B",
"b	c #1B1B1B",
"c	c #1D1D1D",
"d	c #1A1A1A",
"e	c #434343",
"f	c #444444",
" .+@#$%&*&* &=-.;> @,')!=~{*+.~+",
"]^/;+,.(_(:<]((^[}:|~*'%(}1^:12]",
"3(3>-45^_]62^]__<7}]; %+178^[960",
"*.a+%4/:/]1[^5|>;_80 ='+8:|(16| ",
"#@=4'40(5(8<(.=-&*.-%'b,>{+>3>4,",
"-,,=+&&+&=+  @'%--@%%,#4@@@==,$)",
"^5|]8_;;>.a;(>&{((5~;|>|~~|>. -c",
"[1666:(335(:<0*|:<8__/(](/_(|>{@",
"_680>;;>>0]:]a={3(__(|5/]/0|>~{=",
".a @@* &*|0;a4,{> .a*a>(({..+&&'",
",@%$d$%4&.*+&,%-&,@-44@+.*++=,@'",
"a~{-c!4{((>|3|a{. 5({-%%~/((5{>{",
"(_];-%{^[}<628^^]/2}]>-&^}[}2^^]",
";||>*=5]_86:(3_^]]8^5.,@(:^61]|;",
"*   =,>33(_3 *~>>;;{ @$#>(3]]~&+",
"@4,4%%.~~~~ %c%@&+=@4'$#+a.a.@c'",
"a-4=+.;5~{a-')b+>a&*&4&~a&@=&=')",
"1/53_<}e16:|*#@]}<(](;][6/5|05*c",
"18^8<:8218]|a4*6e6]_/3_[1:^(5|.#",
"0((/(>>03|{*+4*^6_]]](0(003>**+,",
"&+&*+=& &&-,@@-~55(/3|.+@=+=%%@@",
" +=%$b-*@&*&**& .+.a&@#c=   -@++",
"8]5 #%3^5/8^88]_]5(]~*@@(68<_0_^",
"<:/>@=_1_:22}[8::]86/~- 271[2:88",
">>~.4,0]300/^]|~|3]_3 %*6<03_3~{",
"-&&&%#{55~&-* -4 5/0.,$43/.& *4%",
"&@,=-4-&* -,'$b'@ >a4'%4 .=@&=#b",
"(~.;(5.+a3(~@dc*{;/0 .;|;~a53;.%",
"[^(:[<3|(61/.#&/<1f}/(<68_/81^0-",
":]((_]0>;55~+'*:}7e1]3^:/|;|5;.#",
"]]35(/|*===--c=(6<83~*{;{+====,b",
";>{.a{*@%%,@=,4.5|a&4c'=&,'%,,%c"};
