/* XPM */
static char *result[] = {
/* columns rows colors chars-per-pixel */
"32 32 9 1 ",
"  c #101010",
". c #003018",
"X c #202020",
"o c gray19",
"O c #004020",
"+ c #006030",
"@ c gray25",
"# c #505050",
"$ c #606060",
/* pixels */
"                                ",
"$#$#$##$##$#$$o o$#$#$@o$##$$#X ",
"#@oooo@oooo+OoX @oo+O@o@#o@O@@o ",
"$o@@@XoO@Xo.XXX #o#+ooXoo..OXoX ",
"X     +    .       .            ",
"#o@@@o+ o@@.#o@o@#@oooX o#@@o#@o",
"$oooo+. @ooo@oo@oo#@ooX #@oo#@oX",
"oooXo.X #o@@#@oXoXooXXX @oX@@XXo",
"X     .                         ",
"#@#oo@#@O@ooo@@ @@@oo@o@oo@oooX ",
"$o@@#ooOoo.o@@o oo@@@ooo.+.oooo ",
"@oXoXXXO..o@ooX @oXoXoo@+.ooX+X ",
"X      O               .+   +   ",
"@@o@@oX o@#@o#.o@oo#.oo @#@#+@@o",
"$oooooo @oo@@o+@@o+.ooX @oo@@ooo",
"#XXoXoX @..o@+XoXo+XoXX o@o@oXXo",
"X       .    +    .             ",
"#@#oo.@@##o#ooX @#o@@oo.@ooo+oX ",
"#o@@.+@oo@@oooX #@oooo+@@@@o+oX ",
"$XXo+ooXooXoXXo @o@@@@+oXXoX.Xo ",
"X   +                 .     .   ",
"$@#@@oX #@+#@@#o#@o#ooo @#@#o@#o",
"#oooooX @o+o@@@.oooo@oX #oo@@ooo",
"$XXoXoX @.@XXXoXXo@@oXX @@XXoXXX",
"X        .     .                ",
"#@#@o@#@oo@#@oX @o@#oo@@@@o+@@o ",
"$@oo.ooooooooXX #o#@@o.@oo+oooX ",
"#o@@.o@@.+XXXoX @@@ooX.ooX.XXXX ",
"X   .   .+         + .    .     ",
"##@o+oX +@@@#o#@o#+oooX #oo#@#@o",
"$@@@ooo +#oo@@o@oo.oooX @@oooooo",
"$@ooXXX o#oo@oooo@.oXoX @o@XXXoX"
};
