/* XPM */
static char *result[] = {
/* columns rows colors chars-per-pixel */
"32 32 8 1 ",
". c #875609",
"X c #A96C08",
"o c #CA8E0D",
"O c #E89D07",
"+ c #FFB51F",
"@ c #FDFF59",
"# c white",
"  c None",
/* pixels */
"                                ",
"                                ",
"                                ",
"                                ",
"                                ",
"                                ",
"                                ",
"                                ",
"                                ",
"                                ",
"                                ",
"             #@+++              ",
"            +@.XX@+             ",
"           @.XooOXX@            ",
"          @.XoOooOXX@           ",
"          +XoOooOoOo+           ",
"          +XoOooOoOo+           ",
"          +XoOooOoOo+           ",
"          X+@ooOoO++.           ",
"           X+@ooO++.            ",
"            XX+@+X.             ",
"             XXX.X              ",
"                                ",
"                                ",
"                                ",
"                                ",
"                                ",
"                                ",
"                                ",
"                                ",
"                                ",
"                                "
};
