/* XPM */
static char *result[] = {
/* columns rows colors chars-per-pixel */
"32 32 9 1 ",
"  c black",
". c #875609",
"X c #A96C08",
"o c #CA8E0D",
"O c #E89D07",
"+ c #FFB51F",
"@ c #FDFF59",
"# c white",
"$ c None",
/* pixels */
"$$$$$$$$$$$$$$$$$$$$$$$$$$$$$$$$",
"$$$$$$$$$$$$$$$$$$$$$     $$$$$$",
"$$$$$$$$$$$$$$$$$$$  #@+++  $$$$",
"$$$$$$$$$$$$$$$$$$ +@X..XX@+ $$$",
"$$$$$$$$$$$$$$$$$ @X.oOooOX.@ $$",
"$$$$$$$$$$$$$$$$$ +.oOooOoOo+ $$",
"$$$$$$$$$$     $$ .+@ooOoO++X $$",
"$$$$$$$$  #@+++   +XX+@#++XXo $$",
"$$$$$$$ +@.XXXX@+ .+@XXXXX+o. $$",
"$$$$$$ @.XoOooOXX@+XX+@@+oXXo $$",
"$$$$   X.oOooOoOo+.+@XXXXX+o. $$",
"$$  #@+++.XoOoO+@X+XX+@#++XXo $$",
"$ +@..XXXoo.....X .+@XXXXX+o.  $",
" @.XoOooO..@@+++  oXX+@@+oXXo   ",
" +XoOooO.+@..XXX@+.o+XXXXX+o.   ",
" X+@ooOX@.XoOooOXX@..+@#+oX.o   ",
"$ XX++o.+XoOooOoOo+XoXXX..ooX   ",
"$$  XXX.X+@ooOoO++X..o+@+oX.o   ",
"$$$$    +XX+@#++oX........oo.  $",
"$$$$$$$ X+@XXX..X.X@@+++XX.X  $$",
"$$$$$$$ +XX+#@+o.+@..XXX@+   $$$",
"$$$$$$$ .+@XXXX.@.XoOooOXX@ $$$$",
"$$$$$$   .X+@#+X+XoOooOoOo+ $$$$",
"$$$$  #@+++XXXX.X+@ooOoO++.  $$$",
"$$$ +@..XXX@+   +XX+@@++X.o   $$",
"$$ @X.oOooOXX@  .+@XXXXX+o.  $$$",
"$$ +XoOooOoOo+ $ .X+@@+o..  $$$$",
"$$ X+@ooOoO++X $$  XXX..  $$$$$$",
"$$$ XX+@@++X. $$$$$     $$$$$$$$",
"$$$$  XX..X  $$$$$$$$$$$$$$$$$$$",
"$$$$$$     $$$$$$$$$$$$$$$$$$$$$",
"$$$$$$$$$$$$$$$$$$$$$$$$$$$$$$$$"
};
