/* XPM */
static char *result[] = {
/* columns rows colors chars-per-pixel */
"32 32 9 1 ",
"  c black",
". c #875609",
"X c #A96C08",
"o c #CA8E0D",
"O c #E89D07",
"+ c #FFB51F",
"@ c #FDFF59",
"# c white",
"$ c None",
/* pixels */
"$$$$$$$$$$$$$$$$$$$$$$$$$$$$$$$$",
"$$$$$$$$$$$$$$$$$$$$$$$$$$$$$$$$",
"$$$$$$$$$$$$$$$$$$$$$$$$$$$$$$$$",
"$$$$$$$$$$$$$$$$$$$$$$$$$$$$$$$$",
"$$$$$$$$$$$$$$$$$$$$$$$$$$$$$$$$",
"$$$$$$$$$$$$$$$$$$$$$$$$$$$$$$$$",
"$$$$$$$$$$$$$$$$$$$$$$$$$$$$$$$$",
"$$$$$$$$$$$$$$$$$$$$$$$$$$$$$$$$",
"$$$$$$$$$$$$$$$$$$$$$$$$$$$$$$$$",
"$$$$$$$$$$$$$$$$$$$$$$$$$$$$$$$$",
"$$$$$$$$     $$$$$$$$$$$$$$$$$$$",
"$$$$$$  #@+++  $$$$$$$$$$$$$$$$$",
"$$$$$ +@..XXX@+ $$$$$$$$$$$$$$$$",
"$$$$ @.XoOooOXX@ $$$$$$$$$$$$$$$",
"$$$$ +XoOooOoOo+ $$$$$$$$$$$$$$$",
"$$$$ X+@ooOoO++X $$$$$$$$$$$$$$$",
"$$$$$ XX+@@++X. $$$     $$$$$$$$",
"$$$$$$  XX..X  $$  @@+++  $$$$$$",
"$$$$$$$$     $$$ +#..XXX@+ $$$$$",
"$$$$$$$$$$$$$$$ @.XoOooOXX@ $$$$",
"$$$$$$$$$$$$$$$ +XoOooOoOo+ $$$$",
"$$$$$$$$$$$$$$$ X+@ooOoO++X $$$$",
"$$$$$$$$$$$$$$$$ XX+@@++X. $$$$$",
"$$$$$$$$$$$$$$$$$  X.X.X  $$$$$$",
"$$$$$$$$$$$$$$$$$$$     $$$$$$$$",
"$$$$$$$$$$$$$$$$$$$$$$$$$$$$$$$$",
"$$$$$$$$$$$$$$$$$$$$$$$$$$$$$$$$",
"$$$$$$$$$$$$$$$$$$$$$$$$$$$$$$$$",
"$$$$$$$$$$$$$$$$$$$$$$$$$$$$$$$$",
"$$$$$$$$$$$$$$$$$$$$$$$$$$$$$$$$",
"$$$$$$$$$$$$$$$$$$$$$$$$$$$$$$$$",
"$$$$$$$$$$$$$$$$$$$$$$$$$$$$$$$$"
};
