/* XPM */
static char *result[] = {
/* columns rows colors chars-per-pixel */
"32 32 61 1 ",
"  c #003A00",
". c #003B00",
"X c #003C00",
"o c #003D00",
"O c #003E00",
"+ c #003F00",
"@ c #004000",
"# c #004200",
"$ c #004300",
"% c #004500",
"& c #004600",
"* c #004700",
"= c #004800",
"- c #004900",
"; c #004B00",
": c #004C00",
"> c #004E00",
", c #004F00",
"< c #005100",
"1 c #005200",
"2 c #005400",
"3 c #005500",
"4 c #005700",
"5 c #005800",
"6 c #005B00",
"7 c #005D00",
"8 c #005E00",
"9 c #006000",
"0 c #006100",
"q c #006300",
"w c #006600",
"e c #006700",
"r c #006800",
"t c #006900",
"y c #006A00",
"u c #006C00",
"i c #006D00",
"p c #006E00",
"a c #007000",
"s c #007100",
"d c #007200",
"f c #007400",
"g c #007500",
"h c #007600",
"j c #007700",
"k c #007800",
"l c #007900",
"z c #007B00",
"x c #007C00",
"c c #007E00",
"v c #008000",
"b c #008100",
"n c #008200",
"m c #008400",
"M c #008500",
"N c #008600",
"B c #008700",
"V c #008900",
"C c #008C00",
"Z c #2454E3",
"A c #2474E3",
/* pixels */
"<ls180r4v20065l3qe38>g*4w0;3@zq$",
"4du%-4tyu7ygi%z4us1e3u:26y3>5ng4",
"sp2&$7ewt50ds*s49j;y09288xf13d76",
"tp6q=8d08j487:y;;dw000wtezz<6760",
"du2s76u8sp*--,58,hf02rauphhy7*16",
"i<wz,5w00w5;69;6;8nw5dggl5u5w3u4",
"j-7qe:e73&w085>50paaw90ke6510>04",
"j$7u5$t77-sar565y9rsd99e5<:@705$",
"9&9qu>w15qgt8150Bwarz70AOu>:q01$",
"1+t94qt;8Z04rw50d5dyr6g=Xgq10r13",
" :u8wkr>2qs$gk4-1q968&d=;m0,w>wt",
"&246pdi70qy5xVq$#fZu4;s@>y3<p1um",
"5t%4gp5l07m0cd0*@d0ya>9:wu21B=dM",
"671-q0=d66ffl7>*=hgzf>w964i7N>yc",
"17y#04$z61i4q$57$sjwi67z7is0p rj",
"%8x<u;:z02w;>-555xl72wwM50uj1&aw",
"+7f>w<:nw6qX-<07uw01-ntd7s6u&-d9",
"o4q;4weeA62o4w04s745&veeuwww>eq8",
"><84#gg0=64o5y6w052&>N38uk358q77",
"0747>kv458qX7s19175=5l-y00<8rt7y",
"7z,g9gx8u1c@98%930d55u:f<7Z254eu",
"0k%tpgz>nyx+p49411ww2p7d<1>$;wd7",
":q>diic<j0d*y0qq;7hf4q>c5w*>;dpw",
"47;q08q2xs7#fp002yw5>i1wuf#36uu>",
":2q6u:<1sq1=wN59qs0488<94w#e8q3q",
"28r5q,Z8zq$;0u40wt8&;tZ;r6#5<>47",
"<>f668a6k941,40;4rw15<q:q%>>5<6z",
"&:76#7s3z4,57:1&6q6e950>b156p&0g",
"%155;>e%g>t465i 8w>7hq5$t3teh790",
",4w43461t$e5uq8@dw 2Ba$7tu5uw57*",
"07d1522r55h>76d&iz+@Vq>y<dey,q45",
"p2v<6u>d*7p1u18;cC.$C4;N9B86&-04"
};
