/* XPM */
static char * ground_xpm[] = {
"32 32 3 1",
"  c #7FBF7F",
". c #C3C3C3",
"+ c #6F8F6F",
"                                ",
"                                ",
"   ..       ..      ..     ..   ",
"   ..       ..      ..     ..   ",
"   ..       ..      ..     ..   ",
"   ..       ..      ..     ..   ",
"   ..       ..      ..     ..   ",
"   ..       ..      ..     ..   ",
"   ..       ..      ..     ..   ",
"   ..       ..      ..     ..   ",
"  ...       ..      ..     ..   ",
"  ...       ..      ..     ..   ",
"   ..       ..      ..     ..   ",
"   ..       ..      ..     ..   ",
"   ..       ..      ..     ..   ",
"   ..       ..      ..     ..   ",
"            ..                  ",
"                                ",
"                                ",
"                                ",
"                                ",
"                                ",
"                                ",
"                                ",
"                                ",
"                                ",
"                                ",
"                                ",
"                                ",
"                                ",
"                                ",
"                                "
};