/* XPM */
static char *result[] = {
/* columns rows colors chars-per-pixel */
"32 32 20 1 ",
"  c black",
". c #200000",
"X c #300C00",
"o c gray19",
"O c #402000",
"+ c #423012",
"@ c #543D18",
"# c #603000",
"$ c gray25",
"% c #505050",
"& c #7F5A48",
"* c #606060",
"= c #804000",
"- c #9B6E58",
"; c #B27E65",
": c #808060",
"> c #CF9275",
", c #E6A482",
"< c #E6BE9E",
"1 c None",
/* pixels */
"11111111111111111111111111111111",
"11111111111111111111111111111111",
"11111111111111111111111111111111",
"11111111111111111111111111111111",
"11111111111111111111111111111111",
"11111111111111    11111111111111",
"1111111111111 +@@+ 1111111111111",
"1111111111111 @&&+ 1111111111111",
"1111111111111 ;<,; 1111111111111",
"1111111111111 &<,& 1111111111111",
"11111111111111 ,; 11111111111111",
"1111111111111 X;>X 1111111111111",
"111111111111 OX-OOX 111111111111",
"11111111111 #O#.##OO 11111111111",
"11111111111 ##=:#=#O 11111111111",
"1111111111 ,O#=.=##O; 1111111111",
"1111111111 ,O#=:=#=O, 1111111111",
"111111111 ,;O=#.=##O;, 111111111",
"111111111 ,  =#:=#=  , 111111111",
"111111111 , 1 O%#O 1 , 111111111",
"11111111 ;, 1 *%%o 1 ,; 11111111",
"11111111 ;;  *%oo%o  ;; 11111111",
"111111111  1 *$  $o 1  111111111",
"111111111111 *$  $o 111   111111",
"111111111111 *    % 1      11111",
"11111111111 *%    %o       11111",
"11111111111 *%    %o       11111",
"11111111111 *%    %o      111111",
"11111111111 $o    $o     1111111",
"1111111111 ,>;    ;,;   11111111",
"111111111 ,,;   1  ,,;1111111111",
"1111111111    11111   1111111111"
};
