/* XPM */
static char * cat_left_01_xpm[] = {
"32 32 13 1",
" 	c None",
".	c #5B4211",
"+	c #EDB951",
"@	c #AF5F1D",
"#	c #E3A324",
"$	c #C38811",
"%	c #C27635",
"&	c #D9D9DD",
"*	c #2E1E22",
"=	c #C3D5EF",
"-	c #928A8C",
";	c #E6F7FF",
">	c #5C3000",
"                                ",
"                                ",
"                                ",
"                                ",
"                                ",
"                                ",
"                                ",
"                                ",
"                                ",
"                                ",
"           .                    ",
"          .+.                   ",
"        ..+@#.           ...    ",
"      ..$.@%+$.         .$##.   ",
"     .$###+%+#.          ..$#.  ",
"    .$#++++#+#$.           .+.  ",
"    .#+++++++##.           .+.  ",
"   .$+++++++++#$.         .#+.  ",
"   .##...#++++##$......   .+.   ",
"   .#$&*=$++++#######$$...#$.   ",
"  .#+$-*;#++++#++++++++#$.$.    ",
"  .*+#>>#+++++++++++++++#$.     ",
"  .$#+++++++#++++++++++++#$.    ",
"   .$#++++###++++++++++++#$.    ",
"    ..$$##$$#++######+++++#.    ",
"      .....$++#$#$$$$#++++#.    ",
"          .+++$......$##+++$.   ",
"         .#++#.$$. .$...$++#.   ",
"        .$++#$.$$. .$$$..++#.   ",
"        .#++$....   ... .++$.   ",
"         ....            ...    ",
"                                "};
