/* XPM */
static char *result[] = {
/* columns rows colors chars-per-pixel */
"32 32 9 1 ",
"  c #5C3D1E",
". c #8D5E2F",
"X c #BE7F3F",
"o c #CF9F6F",
"O c #D6AE85",
"+ c #DEBE9D",
"@ c #E7CFB7",
"# c #EFDFCF",
"$ c #FEFEFD",
/* pixels */
"oXXXXXXXXXXXXXXXoXXXXXXXXXXXXXXX",
"X$oO..o @..o..@ X$oO..o @..o..@ ",
"X.X#O..o X..o.. X.X#O..o X..o.. ",
"X..+#O..o X..o. X..+#O..o X..o. ",
"Xo..+#O..o X..o Xo..+#O..o X..o ",
"X o..+#O..o X.. X o..+#O..o X.. ",
"X. o..+#O..o X. X. o..+#O..o X. ",
"X . o..+#O..o X X . o..+#O..o X ",
"X@ . o..+#O..o$ X@ . o..+#O..o$ ",
"X.X . o..+#O..o X.X . o..+#O..o ",
"X..X . o..+#O.. X..X . o..+#O.. ",
"X...X . o..+#O. X...X . o..+#O. ",
"X....X . o..+#O X....X . o..+#O ",
"X.....X . o..oX X.....X . o..oX ",
"X@.....X@. o..$ X@.....X@. o..$ ",
".               .               ",
"XXXXXXXXoXXXXXXXXXXXXXXXoXXXXXXX",
"@..o..@ X$oO..o @..o..@ X$oO..o ",
" X..o.. X.X#O..o X..o.. X.X#O..o",
"o X..o. X..+#O..o X..o. X..+#O..",
".o X..o Xo..+#O..o X..o Xo..+#O.",
"..o X.. X o..+#O..o X.. X o..+#O",
"O..o X. X. o..+#O..o X. X. o..+#",
"#O..o X X . o..+#O..o X X . o..+",
"+#O..o$ X@ . o..+#O..o$ X@ . o..",
".+#O..o X.X . o..+#O..o X.X . o.",
"..+#O.. X..X . o..+#O.. X..X . o",
"o..+#O. X...X . o..+#O. X...X . ",
" o..+#O X....X . o..+#O X....X .",
". o..oX X.....X . o..oX X.....X ",
"@. o..$ X@.....X@. o..$ X@.....X",
"        .               .       "
};
