/* XPM */
static char *result[] = {
/* columns rows colors chars-per-pixel */
"32 32 8 1 ",
"  c #101010",
". c #202020",
"X c gray19",
"o c gray25",
"O c #505050",
"+ c #606060",
"@ c gray44",
"# c #808080",
/* pixels */
"  .   .  ..   . ..  . .    . .. ",
" @##@++#+#@+#@.+@#@##+++o O+@@#+",
".+OoX.ooXO.XXo.OXoXXXoXXX +oooXX",
" @XXXoOXXoXoOX +XoOXoOXXo #XX.XX",
" #Xo.XoXoOoXoX.+oXX.OXXoX +o.oX.",
" #.OX.XoXoXXo. OX.ooXoXoX #X+O+O",
".+XooXoXOXXoX. +oXXXX.oOo #XoXoO",
" @XX.oXoOXOOoX Ooo.oXXOoO +ooOoX",
" #OoXOoOooXoX. +XXXoOOXOX.#OooOX",
" +XoXoOoOXXOXX.+o..XooXoX +XOoX.",
" @X.X.XXXoXoX. OXXo.XXXoX OXoXXo",
". .  ..     .             OoOXoX",
" ++O+O+OO+O+O++Oo O++OOo .+XXXXo",
" @oOXXXooooOoXoXX OoXXoX OoooXoX",
" #oXXoOXXOXoX.XoX.+oXO.X +XOXoXX",
".@XoXOOXoooO.oOoo OXooXo OoXoOoo",
" #oXoXoXXoOXXoXoX +oOXo. +XXoXoO",
".@oOX.XXoXXo.XoXo.OOoOXX OXoX.XX",
" +ooXXooX.  .  .  +oXXo.   .  . ",
" @XXooXXo O+OO+OO.+ooX.. OO+O+OO",
" +ooXXXoX OoXoXXo OX.ooX.+oXX.oo",
" #oOX.oO..+XoOoO..O.XoX. +XooXoO",
" @oXXoXo. OXX.Oo. oXoX.X.oXOXoOX",
" #OoOoXoX +oOX       .          ",
" @XXoo.XX.OoX. oO+O+OO+++O+O+++O",
".+X..XXX. +oXX OoXoXooXooXoo.XoX",
" .   . .  +X.. OoOoX.XoXXoX.X.oX",
" +O+OOOO++OXoX +XoXoXooXoXXXooX.",
" @X.oXXXoXo.Xo OXo.XoXoXoXoX.XoX",
".#OoXoXOXoO.X. +oOo.XoX.X.X.X.XO",
".@oXoXXoOoXXOo OXo.XoXX.XoXXoXXo",
" #XoXXXX.XOoXX oXXooXXoX.Xo.XOoX"
};
