/* XPM */
static char * red_brick_xpm[] = {
"32 32 766 2",
"  	c #744A46",
". 	c #883A2E",
"+ 	c #A14432",
"@ 	c #A04432",
"# 	c #9E4332",
"$ 	c #943E32",
"% 	c #903C32",
"& 	c #8E3C32",
"* 	c #883932",
"= 	c #8A3A32",
"- 	c #863832",
"; 	c #8E3B32",
"> 	c #873832",
", 	c #AA8E82",
"' 	c #AE998D",
") 	c #AD5140",
"! 	c #AE4C39",
"~ 	c #8D3B33",
"{ 	c #8B3B34",
"] 	c #823632",
"^ 	c #8F3C32",
"/ 	c #8D3B32",
"( 	c #974033",
"_ 	c #863A34",
": 	c #7E3533",
"< 	c #8F7E76",
"[ 	c #86392D",
"} 	c #AB4932",
"| 	c #A84832",
"1 	c #A94832",
"2 	c #A34632",
"3 	c #A54632",
"4 	c #AA4932",
"5 	c #9C4232",
"6 	c #A57F74",
"7 	c #A05D52",
"8 	c #AE4A33",
"9 	c #B24D36",
"0 	c #AF4B34",
"a 	c #B14C36",
"b 	c #A94932",
"c 	c #A44632",
"d 	c #A64732",
"e 	c #8B3C34",
"f 	c #803633",
"g 	c #927A72",
"h 	c #84372C",
"i 	c #A54531",
"j 	c #9E4231",
"k 	c #933D31",
"l 	c #A34431",
"m 	c #963E31",
"n 	c #923C31",
"o 	c #983F32",
"p 	c #9B4132",
"q 	c #A74732",
"r 	c #A37F74",
"s 	c #985B51",
"t 	c #A34532",
"u 	c #963F32",
"v 	c #A04332",
"w 	c #9A4232",
"x 	c #893A33",
"y 	c #9A7A70",
"z 	c #7D332A",
"A 	c #903A2F",
"B 	c #953C2F",
"C 	c #8B382F",
"D 	c #8C392F",
"E 	c #8E3A2F",
"F 	c #8D3930",
"G 	c #833630",
"H 	c #8C3930",
"I 	c #8F3B30",
"J 	c #963E30",
"K 	c #943D31",
"L 	c #943E31",
"M 	c #7F3431",
"N 	c #7D3431",
"O 	c #9B7C73",
"P 	c #975A50",
"Q 	c #A24432",
"R 	c #994032",
"S 	c #994132",
"T 	c #953F32",
"U 	c #8C3B32",
"V 	c #893932",
"W 	c #873932",
"X 	c #863831",
"Y 	c #853730",
"Z 	c #883830",
"` 	c #997268",
" .	c #6D2C28",
"..	c #8A372D",
"+.	c #8B372D",
"@.	c #7E322D",
"#.	c #78302D",
"$.	c #7E332E",
"%.	c #89372E",
"&.	c #82342E",
"*.	c #86362E",
"=.	c #81352F",
"-.	c #7E332F",
";.	c #7D332F",
">.	c #75302E",
",.	c #76302F",
"'.	c #977B72",
").	c #94594F",
"!.	c #8B3930",
"~.	c #843730",
"{.	c #893930",
"].	c #7E3430",
"^.	c #742F2F",
"/.	c #79322F",
"(.	c #7E332D",
"_.	c #89372D",
":.	c #7E322C",
"<.	c #825E59",
"[.	c #602727",
"}.	c #7C312B",
"|.	c #80322B",
"1.	c #79302B",
"2.	c #712D2C",
"3.	c #702D2C",
"4.	c #79302C",
"5.	c #6D2C2B",
"6.	c #6D2C2C",
"7.	c #722E2D",
"8.	c #6B2B2B",
"9.	c #672A2A",
"0.	c #8E786E",
"a.	c #8A554D",
"b.	c #7C312D",
"c.	c #742E2D",
"d.	c #77302D",
"e.	c #732E2D",
"f.	c #7B312C",
"g.	c #7C312C",
"h.	c #6E2C2B",
"i.	c #662929",
"j.	c #652828",
"k.	c #682929",
"l.	c #6D2B28",
"m.	c #6E2B28",
"n.	c #816C67",
"o.	c #76544D",
"p.	c #732F2D",
"q.	c #732A27",
"r.	c #672524",
"s.	c #672425",
"t.	c #5A2021",
"u.	c #5D2120",
"v.	c #603433",
"w.	c #512E2D",
"x.	c #4F2A29",
"y.	c #5F2525",
"z.	c #662626",
"A.	c #652525",
"B.	c #6A2828",
"C.	c #632626",
"D.	c #87776E",
"E.	c #815853",
"F.	c #6F2826",
"G.	c #692626",
"H.	c #652424",
"I.	c #662323",
"J.	c #5E2122",
"K.	c #561D1E",
"L.	c #45181A",
"M.	c #521C1D",
"N.	c #4C1A1B",
"O.	c #5F2022",
"P.	c #602022",
"Q.	c #612524",
"R.	c #715955",
"S.	c #988880",
"T.	c #8A7671",
"U.	c #87746F",
"V.	c #948C82",
"W.	c #A0958B",
"X.	c #9C8C82",
"Y.	c #9D8E84",
"Z.	c #998A81",
"`.	c #847873",
" +	c #837771",
".+	c #867570",
"++	c #8E7E77",
"@+	c #9C8E84",
"#+	c #897872",
"$+	c #8A756F",
"%+	c #896E67",
"&+	c #826F6A",
"*+	c #A08C82",
"=+	c #A18D83",
"-+	c #8F7F79",
";+	c #897772",
">+	c #9C8178",
",+	c #A18F84",
"'+	c #A08E84",
")+	c #A69084",
"!+	c #A79083",
"~+	c #9F8E84",
"{+	c #9C8D84",
"]+	c #724941",
"^+	c #86746E",
"/+	c #A14330",
"(+	c #983E30",
"_+	c #80332F",
":+	c #623030",
"<+	c #87736E",
"[+	c #953C30",
"}+	c #B14B37",
"|+	c #A34331",
"1+	c #A04230",
"2+	c #A04330",
"3+	c #A0422F",
"4+	c #A34330",
"5+	c #A54430",
"6+	c #AB4831",
"7+	c #A24430",
"8+	c #9E4130",
"9+	c #963D2F",
"0+	c #886763",
"a+	c #8E4E47",
"b+	c #AC4831",
"c+	c #A2422F",
"d+	c #8D382F",
"e+	c #AA462F",
"f+	c #AB472F",
"g+	c #A1422F",
"h+	c #943B2F",
"i+	c #A0412F",
"j+	c #A84633",
"k+	c #B04B35",
"l+	c #A24330",
"m+	c #A84731",
"n+	c #A54631",
"o+	c #A74632",
"p+	c #7F3432",
"q+	c #917A74",
"r+	c #AB4833",
"s+	c #B34E38",
"t+	c #B74F38",
"u+	c #AA4933",
"v+	c #984132",
"w+	c #AB4933",
"x+	c #AD4A33",
"y+	c #AE4B36",
"z+	c #845A55",
"A+	c #8F4941",
"B+	c #B44E37",
"C+	c #A94834",
"D+	c #A84732",
"E+	c #943D30",
"F+	c #903B30",
"G+	c #9B4030",
"H+	c #933D30",
"I+	c #AD8E82",
"J+	c #A8452F",
"K+	c #984031",
"L+	c #A74631",
"M+	c #A24431",
"N+	c #8E3C31",
"O+	c #8C3B31",
"P+	c #923E31",
"Q+	c #8E3D31",
"R+	c #873931",
"S+	c #893B32",
"T+	c #913E32",
"U+	c #8E3D32",
"V+	c #80544F",
"W+	c #8D473E",
"X+	c #AB4832",
"Y+	c #AE4A34",
"Z+	c #A64632",
"`+	c #A34531",
" @	c #9C4131",
".@	c #A74731",
"+@	c #A94731",
"@@	c #8D382E",
"#@	c #8E382E",
"$@	c #8E392E",
"%@	c #AB8C7F",
"&@	c #A6422D",
"*@	c #9B3F2F",
"=@	c #9C402F",
"-@	c #8F3B2F",
";@	c #84372F",
">@	c #83372F",
",@	c #82362F",
"'@	c #80352F",
")@	c #9A402F",
"!@	c #9A4030",
"~@	c #7F514C",
"{@	c #8B443C",
"]@	c #9F412F",
"^@	c #953D2F",
"/@	c #8F3A2F",
"(@	c #9B402F",
"_@	c #983E2F",
":@	c #83332B",
"<@	c #87342B",
"[@	c #88352B",
"}@	c #7D312C",
"|@	c #9D877B",
"1@	c #8C3629",
"2@	c #91392B",
"3@	c #8C382B",
"4@	c #83342B",
"5@	c #78302B",
"6@	c #7A312C",
"7@	c #77302C",
"8@	c #752E2C",
"9@	c #702C2C",
"0@	c #742E2C",
"a@	c #7D332C",
"b@	c #8A372C",
"c@	c #83352C",
"d@	c #73504D",
"e@	c #87433B",
"f@	c #8A352C",
"g@	c #87342C",
"h@	c #88352C",
"i@	c #89352C",
"j@	c #90382C",
"k@	c #88342B",
"l@	c #89352B",
"m@	c #86342B",
"n@	c #792F2B",
"o@	c #752C27",
"p@	c #802F27",
"q@	c #672827",
"r@	c #836962",
"s@	c #6B2826",
"t@	c #682927",
"u@	c #652826",
"v@	c #692927",
"w@	c #6A2927",
"x@	c #682827",
"y@	c #652727",
"z@	c #672927",
"A@	c #722D27",
"B@	c #692A27",
"C@	c #785B57",
"D@	c #74423E",
"E@	c #712B27",
"F@	c #772D27",
"G@	c #7A2D27",
"H@	c #732B27",
"I@	c #722B27",
"J@	c #642727",
"K@	c #6A2421",
"L@	c #7C2A22",
"M@	c #742721",
"N@	c #6A3936",
"O@	c #4C3C39",
"P@	c #4D1E1E",
"Q@	c #481A1A",
"R@	c #4D1A1B",
"S@	c #551B1C",
"T@	c #531B1C",
"U@	c #5A1E1F",
"V@	c #5E1F1F",
"W@	c #5B1F1F",
"X@	c #5C1F1F",
"Y@	c #5F201F",
"Z@	c #5C1F20",
"`@	c #5D1F20",
" #	c #571D1E",
".#	c #7C6A64",
"+#	c #71504D",
"@#	c #5E2021",
"##	c #5C2021",
"$#	c #551F1F",
"%#	c #541C1D",
"&#	c #4E191A",
"*#	c #541B1D",
"=#	c #581D1E",
"-#	c #63201E",
";#	c #69221E",
">#	c #98837A",
",#	c #8E7570",
"'#	c #88746F",
")#	c #7C6762",
"!#	c #726460",
"~#	c #7F716C",
"{#	c #81746F",
"]#	c #8F7E77",
"^#	c #9E8B82",
"/#	c #A08C81",
"(#	c #A49489",
"_#	c #A79B8F",
":#	c #9D8D83",
"<#	c #A08F84",
"[#	c #A4978C",
"}#	c #90817B",
"|#	c #9F8C82",
"1#	c #897870",
"2#	c #9F8F84",
"3#	c #9B8F84",
"4#	c #A1988E",
"5#	c #A4988E",
"6#	c #9E8E84",
"7#	c #AD4936",
"8#	c #AF4B38",
"9#	c #AA4836",
"0#	c #973D2F",
"a#	c #88362F",
"b#	c #854D47",
"c#	c #9F9085",
"d#	c #78322B",
"e#	c #863B2F",
"f#	c #9D482F",
"g#	c #8A3D2F",
"h#	c #7F372F",
"i#	c #94432F",
"j#	c #A14B32",
"k#	c #AF5137",
"l#	c #A64D32",
"m#	c #A04A30",
"n#	c #A0492E",
"o#	c #98452F",
"p#	c #7F3B2F",
"q#	c #796F6A",
"r#	c #875A56",
"s#	c #973D2E",
"t#	c #A64532",
"u#	c #9F4332",
"v#	c #A28E83",
"w#	c #994730",
"x#	c #A95032",
"y#	c #AC5132",
"z#	c #AB5132",
"A#	c #AE5233",
"B#	c #A74F32",
"C#	c #AE5334",
"D#	c #B55638",
"E#	c #B85839",
"F#	c #9B4932",
"G#	c #904332",
"H#	c #A44E32",
"I#	c #876962",
"J#	c #894D48",
"K#	c #BC523C",
"L#	c #A14532",
"M#	c #9C4332",
"N#	c #A24532",
"O#	c #968077",
"P#	c #9F4A31",
"Q#	c #A14C32",
"R#	c #954632",
"S#	c #AC5232",
"T#	c #A44D32",
"U#	c #A64F34",
"V#	c #A54E33",
"W#	c #A24C32",
"X#	c #853E32",
"Y#	c #813B32",
"Z#	c #886963",
"`#	c #925048",
" $	c #9B4232",
".$	c #974132",
"+$	c #964032",
"@$	c #9E4432",
"#$	c #A04532",
"$$	c #884034",
"%$	c #63433E",
"&$	c #A04B32",
"*$	c #994832",
"=$	c #964632",
"-$	c #8F4232",
";$	c #853D32",
">$	c #893F32",
",$	c #813C32",
"'$	c #833C32",
")$	c #8C4131",
"!$	c #924331",
"~$	c #914331",
"{$	c #7C3831",
"]$	c #856762",
"^$	c #904F46",
"/$	c #A84630",
"($	c #A44431",
"_$	c #843630",
":$	c #943F31",
"<$	c #893A32",
"[$	c #8B3B32",
"}$	c #933F32",
"|$	c #943F32",
"1$	c #974032",
"2$	c #9B4332",
"3$	c #8D3F34",
"4$	c #795D58",
"5$	c #954531",
"6$	c #934432",
"7$	c #823C31",
"8$	c #833C31",
"9$	c #883F31",
"0$	c #873E31",
"a$	c #813B30",
"b$	c #7B3830",
"c$	c #7A3730",
"d$	c #7F392F",
"e$	c #883D2F",
"f$	c #863C2F",
"g$	c #7F392E",
"h$	c #92766C",
"i$	c #83514B",
"j$	c #9B3E2E",
"k$	c #88362D",
"l$	c #7C322D",
"m$	c #82352F",
"n$	c #863730",
"o$	c #7A3231",
"p$	c #7A3331",
"q$	c #7D3331",
"r$	c #8A3931",
"s$	c #8A3930",
"t$	c #923D30",
"u$	c #8D3A30",
"v$	c #725652",
"w$	c #7D382F",
"x$	c #853B2F",
"y$	c #7E382E",
"z$	c #7D382E",
"A$	c #8E3F2D",
"B$	c #75342D",
"C$	c #76342D",
"D$	c #72322D",
"E$	c #73332C",
"F$	c #79352C",
"G$	c #7E372C",
"H$	c #78342C",
"I$	c #91786D",
"J$	c #96655A",
"K$	c #8D362A",
"L$	c #722D2B",
"M$	c #762E2A",
"N$	c #722C28",
"O$	c #732D29",
"P$	c #742D29",
"Q$	c #7B302A",
"R$	c #632727",
"S$	c #612727",
"T$	c #6F2C2B",
"U$	c #772F2B",
"V$	c #732E2B",
"W$	c #6B2B28",
"X$	c #775C58",
"Y$	c #682D28",
"Z$	c #6C302A",
"`$	c #753329",
" %	c #6B2F29",
".%	c #6A2E29",
"+%	c #713129",
"@%	c #682C28",
"#%	c #672C27",
"$%	c #5C2824",
"%%	c #692D28",
"&%	c #682D27",
"*%	c #5D2924",
"=%	c #7C6A63",
"-%	c #8B5B52",
";%	c #6C2927",
">%	c #612626",
",%	c #6F2B27",
"'%	c #7E635B",
")%	c #80635A",
"!%	c #785B54",
"~%	c #6E5551",
"{%	c #665C58",
"]%	c #61524E",
"^%	c #5D4745",
"/%	c #654D49",
"(%	c #6D544E",
"_%	c #786057",
":%	c #786158",
"<%	c #7A645D",
"[%	c #907D74",
"}%	c #78645A",
"|%	c #776259",
"1%	c #7A665E",
"2%	c #78675F",
"3%	c #78665E",
"4%	c #77655D",
"5%	c #77665D",
"6%	c #7C6962",
"7%	c #826D68",
"8%	c #7F6B65",
"9%	c #6B534E",
"0%	c #6E514B",
"a%	c #715750",
"b%	c #695E58",
"c%	c #8C817B",
"d%	c #806C67",
"e%	c #725A55",
"f%	c #705B55",
"g%	c #80665D",
"h%	c #966960",
"i%	c #96685F",
"j%	c #916259",
"k%	c #7E534F",
"l%	c #97594F",
"m%	c #A55A4B",
"n%	c #A65B4D",
"o%	c #9A5B50",
"p%	c #9F9086",
"q%	c #84625A",
"r%	c #94675E",
"s%	c #946158",
"t%	c #98655A",
"u%	c #9A685D",
"v%	c #9A6A5F",
"w%	c #976C63",
"x%	c #9A6D64",
"y%	c #9B6D63",
"z%	c #9B6C62",
"A%	c #93665E",
"B%	c #825653",
"C%	c #835551",
"D%	c #806460",
"E%	c #7A7872",
"F%	c #6F5D58",
"G%	c #89645E",
"H%	c #815855",
"I%	c #8D5B54",
"J%	c #94635B",
"K%	c #95645B",
"L%	c #936A62",
"M%	c #A24632",
"N%	c #84362E",
"O%	c #A84833",
"P%	c #AC4A32",
"Q%	c #AC4932",
"R%	c #913D32",
"S%	c #7E6F6A",
"T%	c #8D3B30",
"U%	c #A44634",
"V%	c #AA4731",
"W%	c #A34430",
"X%	c #9D5042",
"Y%	c #917D76",
"Z%	c #7D3330",
"`%	c #9C4233",
" &	c #8B5B55",
".&	c #93817A",
"+&	c #A54530",
"@&	c #AA4832",
"#&	c #9E412F",
"$&	c #A1412E",
"%&	c #994E42",
"&&	c #88716D",
"*&	c #853631",
"=&	c #933E32",
"-&	c #833632",
";&	c #833732",
">&	c #933C30",
",&	c #886F6A",
"'&	c #A3422E",
")&	c #A5432F",
"!&	c #A0412E",
"~&	c #953C2E",
"{&	c #923B2D",
"]&	c #9A3D2D",
"^&	c #9E3E2C",
"/&	c #873830",
"(&	c #863830",
"_&	c #984030",
":&	c #725653",
"<&	c #813530",
"[&	c #803430",
"}&	c #7C3330",
"|&	c #7B3230",
"1&	c #833530",
"2&	c #823530",
"3&	c #88382F",
"4&	c #85362E",
"5&	c #7C322E",
"6&	c #8D382D",
"7&	c #933A2C",
"8&	c #816662",
"9&	c #82332B",
"0&	c #8C372B",
"a&	c #81332B",
"b&	c #82332A",
"c&	c #85342A",
"d&	c #893529",
"e&	c #973929",
"f&	c #752F2C",
"g&	c #79312C",
"h&	c #81332C",
"i&	c #8C382C",
"j&	c #913A2C",
"k&	c #78302C",
"l&	c #78605C",
"m&	c #752E2B",
"n&	c #742F2C",
"o&	c #712D2B",
"p&	c #6F2C2A",
"q&	c #712D2A",
"r&	c #712C29",
"s&	c #722D29",
"t&	c #732C28",
"u&	c #7E3028",
"v&	c #6F2B25",
"w&	c #775B56",
"x&	c #692825",
"y&	c #702B27",
"z&	c #6B2926",
"A&	c #752C26",
"B&	c #6D2A26",
"C&	c #682826",
"D&	c #591F20",
"E&	c #632323",
"F&	c #6C2723",
"G&	c #662523",
"H&	c #772B22",
"I&	c #6E2823",
"J&	c #663131",
"K&	c #7A635F",
"L&	c #5A2525",
"M&	c #622224",
"N&	c #622223",
"O&	c #602122",
"P&	c #5F2122",
"Q&	c #581F20",
"R&	c #591F1F",
"S&	c #622220",
"T&	c #612120",
"U&	c #5C2020",
"V&	c #511D1D",
"W&	c #4D302F",
"X&	c #664F4C",
"Y&	c #501B1C",
"Z&	c #551E1F",
"`&	c #5C201F",
" *	c #62211F",
".*	c #571E1E",
"+*	c #48191A",
"@*	c #A49689",
"#*	c #A39486",
"$*	c #A28F81",
"%*	c #A08B7D",
"&*	c #9E8B7C",
"**	c #9F8B7D",
"=*	c #A08A7D",
"-*	c #A59082",
";*	c #AD998C",
">*	c #A39083",
",*	c #A59285",
"'*	c #A69386",
")*	c #A69286",
"!*	c #A49285",
"~*	c #A49185",
"{*	c #A49084",
"]*	c #A18F83",
"^*	c #A19185",
"/*	c #A49286",
"(*	c #A38E83",
"_*	c #A0877C",
":*	c #9F867B",
"<*	c #A08B80",
"[*	c #A29186",
"}*	c #A18D81",
"|*	c #A18B80",
"1*	c #A18C81",
"  . + @ # $ % & * * * = - ; > , ' ) ! ~ { > > > > ] ^ / ( _ : < ",
"[ } } | 1 } @ 2 3 4 4 4 @ 3 5 6 7 8 9 } 0 4 a | 1 2 b c d e f g ",
"h i j k l j m n o p 3 q d @ ; r s | + t | 3 d t c u 5 v + w x y ",
"z A B C D E F G H I J K L M N O P Q R S / T U V W - > X X Y Z ` ",
" ...+.@.#.$.%.&.$.*.=.-.;.>.,.'.).!.~.{.Y Y I ].^./.$.$.(._.:.<.",
"[.}.|.1.2.3.:.4.5.6.7.7.7.8.9.0.a.b.c.d.e.f.g.h.8.i.[.j.k.l.m.n.",
"o.p.q.r.s.t.u.v.w.x.y.z.A.B.C.D.E.q.F.G.A.H.I.J.K.L.M.N.O.P.Q.R.",
"S.T.U.V.W.X.Y.Z.`. +.+++@+#+$+%+&+*+=+-+;+>+,+'+)+!+~+{+'+'+]+^+",
"/+(+_+:+<+[+}+|+1+2+/+3+4+/+5+6+7+8+9+0+a+b+c+d+e+f+g+h+i+j+k+l+",
"m+n+o+p+q+r+s+} t+u+v+1 w+3 c c c x+y+z+A+9 B+C+q q D+} } x+0 } ",
"E+F+G+H+I+J+K+L+M+N+O+P+Q+R+S+S+S+T+U+V+W+} X+Y+Z+`+ @.@m++@+@L+",
"@@#@$@A %@&@*@=@-@;@>@;@>@=.,@'@;@)@!@~@{@]@^@^@/@E /@(@B _@*@/@",
":@<@[@}@|@1@2@3@4@5@6@7@8@9@0@9@a@b@c@d@e@f@g@h@i@j@g@k@l@m@l@n@",
"o@p@p@q@r@s@t@u@v@w@x@v@q@q@w@y@z@A@B@C@D@w@q@v@w@E@w@F@G@H@I@J@",
"K@L@M@N@O@P@Q@R@S@T@U@V@W@X@Y@Z@Z@`@ #.#+#@###$#%#&#*#=# #-#;#=#",
">#,#'#)#!#~#{#]#X.^#/#(#_#:#'+,+,+,+<#[#}#|#,+1#2#Y.3#4#5#6#6#:#",
"3+/+7#8#9#2+/+3+0#a#9+b#c#d#e#e#f#g#h#i#j#k#l#m#n#o#p#q#r#s#h+t#",
"} } } } } } | 1 u#p T * v#w#x#y#z#A#B#z#C#D#E#A#F#G#H#I#J#t 8 K#",
"d 1 1 3 q L#M#N#D+4 } & O#P#Q#R#x#A#S#T#B#U#V#z#W#X#Y#Z#`#X+t+m+",
"w L#N# $.$+$S @$#$@ 2 $$%$&$*$=$-$F#&$;$>$,$'$)$!$~${$]$^$/$($)@",
"_$:$S <$& [$}$|$1$2$M#3$4$5$6$7$8$9$0$a$a$b$c$d$e$f$g$h$i$j$k$..",
"l$$.m$n$o$p$q$r$s${.t$u$v$w$d$x$y$y$z$A$B$C$D$E$F$G$H$I$J$K$L$M$",
"N$O$P$Q$R$S$5.T$U$V$V$W$X$Y$Z$`$ % %.%+%@%#%$%%%%%&%*%=%-%;%>%,%",
"'%)%!%~%{%]%^%/%(%_%:%<%[%}%|%1%2%3%4%5%6%7%8%9%0%a%b%c%d%e%f%g%",
"h%i%j%k%l%m%n%o%p%q%r%s%t%u%v%w%x%y%z%y%A%B%C%D%E%F%G%H%I%J%K%L%",
"#$#$M%N#4 1 9  $X.N%q O%P%q } D+4 } Q%D+c N#R%k%S%T%+ U%D+m+V%W%",
"} q c q q c d X%Y%Z%t `%#  $t t t t u#& +$} }  &.&+&V%@&W%#&]@$&",
"D+t S R%|$@$M#%&&&*&= R%=&^ -&;&;&;&% T ^ K+M+>&,&'&)&!&~&{&]&^&",
"/&(&Z /&{.J _&T%:&-.<&[&}&|&1&2&[&-.;.3&4&5&6&7&8&9&0&a&b&c&d&e&",
"f&g&h&6@i&j&i&k&l&m&4.n&2.6.V$o&h.p&q&r&s&t&u&v&w&x&y&z&A&B&C&z&",
"D&E&F&G&H&F&I&J&K&L&H.M&N&O&t.P&J.Q&R&S&T&U&V&W&X&Y&Z&`& *.*Y&+*",
"@*#*$*%*&***=*-*;*>*,*'*)*!*~*{*{*]*^*/*(*_*:*<*[*}*|*|*|*1*,+<*"};
