/* XPM */
static char *result[] = {
/* columns rows colors chars-per-pixel */
"32 32 10 1 ",
"  c #101010",
". c #202020",
"X c #606060",
"o c gray44",
"O c #808080",
"+ c #909090",
"@ c #A0A0A0",
"# c gray69",
"$ c #C0C0C0",
"% c #D0D0D0",
/* pixels */
"$%$%%$%$$##O %%%%%$%#@#$#@##@@X.",
"%%$$%%$##$@o.%%$%$%$$#@%##@#@#o ",
"%$%%$$#$$@#X.%$%$%$$@###@#@@##o ",
"%$%$$##$##@o.$$$%$%$#@@@#@###@o.",
"$%$#$$#@@@@o %$%$###@##@#@##@#X ",
"$$##@#@@#@@o.$%$%$@##@##@@@@#@X.",
"OOOoooXoooXX.OOOOoXoXXoOOOooXoo ",
". ..  . .  .. .    ..  .. ...  .",
"##@#O.$%%$%$%$#@##$##@X.$$$%%$%$",
"$#@#O.%$%$$%$#$@@$#$@#o %$$%$$$#",
"@#@@O %$$%%$%$##@#@#@#o.%%$$%$#$",
"@@#@o.$%$%$##$$@#@@@#@X %$%%$%$$",
"@#@#o %$%$##@##@###@#@o $%$#$$##",
"#@#@o.$%##@@#@@#@##@@#o.$##@##@@",
"OoOXo.OoOOOoOoooXOooXoX OoOOoOoX",
". .  .   .. ..... ..   .   .... ",
"$$%$%%%$#$$##@o.##@#@@+@@X.%$#$#",
"%%$%$$$$#$$##@X #@@##@@++O $#$#@",
"%$$%$##$###@##o @######@@O.%$#$@",
"%$%$#####$##@@X #@####@@+o %$#@#",
"$%$##$$#@@@@##o @#@@#@@+@o $#$@@",
"$###@#@#@#@#@@O.#+@+@@+@+X $$##@",
"OoOooOooOooOooX OoOoOooOoo.OOOoX",
".   .  .. .   .. .  ..    .. . .",
"#@@#@@O $%%$%$%$#$$@#$#$##O ##@#",
"@@@#@+O.%$%%$%$#$$##@###@@O.@##@",
"##@+@@o.$%$%$#%$$$#$#@#$@#o.@#@@",
"@@@@++X.%$%$#$##$#$##@###@o #@#@",
"+#@+@@o %$$#$$#@##$$@##@@@o ##@#",
"@@++@+X $###@@@#@@#$##@@#@X @##@",
"OOoXoOo.OoOOoXoXOOOOoOOOoXo ooOX",
"..    ..   .    . . ..  .. .... "
};
