/* XPM */
static char *result[] = {
/* columns rows colors chars-per-pixel */
"32 32 53 1 ",
"  c black",
". c #030F0F",
"X c #0C0C0C",
"o c #041515",
"O c #051919",
"+ c #051C1C",
"@ c #082C2C",
"# c #093131",
"$ c #0B3D3D",
"% c #2A2A2A",
"& c #393939",
"* c #30184C",
"= c #3D1E60",
"- c #4B257B",
"; c #0D4343",
": c #104E4E",
"> c #135555",
", c #145959",
"< c #186666",
"1 c #1B6F6F",
"2 c #1C7171",
"3 c #1F7979",
"4 c #207D7D",
"5 c #464646",
"6 c gray38",
"7 c gray44",
"8 c #5B2B8D",
"9 c #6D2D95",
"0 c #762E98",
"q c #812F9F",
"w c #8A31A7",
"e c #8F32AA",
"r c #9934B2",
"t c #A537B9",
"y c #B139C3",
"u c #BB43C9",
"i c #C947D1",
"p c #D767DB",
"a c #238484",
"s c #289292",
"d c #289494",
"f c #3AB8B8",
"g c #48C9C9",
"h c #50CFCF",
"j c #54D2D2",
"k c #7EE1E1",
"l c #8E8E8E",
"z c #A2A2A2",
"x c gray77",
"c c gray82",
"v c #DADADA",
"b c #F3FCFC",
"n c None",
/* pixels */
"nnnnnnn    nnnnnnnnnnnnnnnnnnnnn",
"nnnnnn qup0       nnnnnn   nnnnn",
"nnnnn quppy0-y9y9w  n   tuw nnnn",
"nnnn eeyyuyrriyeywt9 eiipyi8 nnn",
"nnn qq900eyiyyieiyqtpippiwti0 nn",
"nnn q89e0wupypiuywytuputw-9wu nn",
"nn q898=-ippieuiuywwtur9  09qw n",
"nn e8- n-ppywwwrpitwww- nn w-e n",
"n 989 n wptX55&%qpi098  nnn 8t9 ",
"n q8-  -yy%66665%quw0-  nnn q8e ",
"n q9 n =ir&7cvvx&Xqi9w8 nnn e8q ",
"n 9- n -t&zkf1:vz%qi0etu n   9q ",
"n 9 nn -i5jbg@d$z6Xt89tip  0 w- ",
"n 8 n =0y6,h, #>z6Xy089qii -09 n",
"n 9 n 88t72+  O<z5Xy-=08wp  0q n",
" e-  -8-e%13.o;s75=i8* w8iy 08 n",
"   n 88-*y7sfa4l6&yq* n w8p  0 n",
"nnn 9w=  =q67l66&qi8 nnn 0r n q ",
"nnn w8  n -9&&&%yt8 nnnn 0t nn  ",
"nn 8w8*r n =0t0yq8 nnnnn 0u nnnn",
"nn t8=q nnn       nnnnn 9tq nnnn",
"nn t89 nnnnnnnnnnnnnnnn -u nnnnn",
"nn w-8 nnnnnnnnnnnnnnn q8q nnnnn",
"nn 9- nnnnnnnnnnnnnnn 8-t nnnnnn",
"nn -* nnnnnnnnnnnnnnn q*8 nnnnnn",
"nn 8= nnnnnnnnnnnnnnn r*= nnnnnn",
"nnn 0= nnn     nnnnnn i- nnnnnnn",
"nnnn ur nnnn          p0 nnnnnnn",
"nnnnn  n               it   nnnn",
"nnnnnnnnn                 nnnnnn",
"nnnnnn             nn      nnnnn",
"nnnnnnnnnnnnnnnnnnnnnnnnnnnnnnnn"
};
